<svg xmlns="http://www.w3.org/2000/svg" xmlns:xlink="http://www.w3.org/1999/xlink" width="384" height="384" stroke="#000" stroke-linecap="round" stroke-linejoin="round" fill="#fff" fill-rule="evenodd"><style><![CDATA[.B{fill:#c08ca8}.C{fill:#dabbcc}.D{fill:#ad688d}.E{fill:#994573}]]></style><g stroke="none" fill-rule="nonzero"><path d="M78.1667 66.8333l.6666.3334-.6666-.3334z" class="C"/><path d="M79.5 66.5l1 1-1-1z" class="B"/><path d="M80.5 66.5l1 1-1-1z" class="D"/><path d="M55.5 71.5c5.6319 10.5818 12.2297 20.7221 18.3997 31 2.4601 4.098 6.9959 9.109 7.4336 14 .9079 10.143-6.9829 24.4491-10.1666 34.0001C62.5246 176.426 51.6559 202.891 45.5 229.5c7.8983-1.4719 17.8193-1.169 25-4.919 11.226-5.8619 20.8098-17.972 33-21.691 11.56-3.526 25.036-3.839 37-5.52l69-10.141c40.43-5.826 83.194-16.8869 124-17.729-2.196-4.325-6.17-6.754-10-9.627-4.453-3.339-9.484-8.5619-15-9.939-10.635-2.656-27.174 3.1881-38 4.696-58.547 8.158-117.892 15.044-176 25.8701l4-14.0001c61.565-1.2709 122.45-24.7299 184-26v-.9999c-8.412-5.2381-17.299-16.007-27-18.4481-11.193-2.815-29.549 3.722-41 5.3181l-67 9.859c-13.068 1.8829-27.37 2.4329-40 6.2709 3.849-16.636 14.096-15.2149 29-17.421 20.433-3.0249 43.26-3.581 63-9.579-5.532-5.919-16.013-17.2556-24-19.2414-13.434-3.3403-29.592 8.6764-43 4.8754-18.17-5.1508-29.882-28.5942-48-33.8168-7.2183-2.0808-21.9131 1.9418-29 4.1828z" class="E"/><path d="M84.5 66.5l1 1-1-1z" class="D"/><path d="M85.5 66.5l1 1-1-1m-14.3333 1.3333l.6666.3334-.6666-.3334z" class="C"/><path d="M73.1667 67.8333l.6666.3334-.6666-.3334z" class="B"/><path d="M74.5 67.5l1 1-1-1z" class="D"/><path d="M86.5 67.5l1 1-1-1m-22.3333 1.3333l.6666.3334-.6666-.3334z" class="C"/><path d="M66.1667 68.8333l.6666.3334-.6666-.3334z" class="B"/><path d="M68.1667 68.8333l.6666.3334-.6666-.3334z" class="D"/><path d="M87.5 68.5l1 1-1-1z" class="B"/><path d="M58.1667 69.8333l.6666.3334-.6666-.3334z" class="C"/><path d="M60.1667 69.8333l.6666.3334-.6666-.3334z" class="B"/><path d="M61.5 69.5l1 1-1-1m27 0l1 1-1-1z" class="D"/><path d="M89.5 69.5l1 1-1-1z" class="C"/><path d="M54.5 70.5l1 1-1-1z" class="B"/><path d="M55.5 70.5l1 1-1-1z" class="D"/><path d="M90.5 70.5l1 1-1-1z" class="C"/><path d="M91.5 71.5l1 1-1-1z" class="B"/><path d="M55.5 72.5l1 1-1-1z" class="C"/><path d="M92.5 72.5l1 1-1-1z" class="D"/><path d="M93.5 72.5l1 1-1-1z" class="C"/><path d="M56.5 73.5l1 1-1-1z" class="D"/><path d="M94.5 73.5l1 1-1-1z" class="C"/><path d="M95.5 74.5l1 1-1-1m-38 1l1 1-1-1z" class="B"/><path d="M96.5 75.5l1 1-1-1z" class="D"/><path d="M97.5 75.5l1 1-1-1m1 1l1 1-1-1m-40 1l1 1-1-1z" class="C"/><path d="M99.5 77.5l1 1-1-1z" class="B"/><path d="M59.5 78.5l1 1-1-1m41 0l1 1-1-1z" class="D"/><path d="M101.5 78.5l1 1-1-1z" class="C"/><path d="M102.5 79.5l1 1-1-1m-42 1l1 1-1-1m43 0l1 1-1-1z" class="B"/><path d="M104.5 81.5l1 1-1-1z" class="D"/><path d="M105.5 81.5l1 1-1-1m-44 1l1 1-1-1z" class="C"/><path d="M106.5 82.5l1 1-1-1z" class="B"/><path d="M62.5 83.5l1 1-1-1z" class="D"/><path d="M107.5 83.5l1 1-1-1z" class="B"/><path d="M108.5 84.5l1 1-1-1z" class="D"/><path d="M109.5 84.5l1 1-1-1z" class="C"/><path d="M63.5 85.5l1 1-1-1m47 0l1 1-1-1z" class="B"/><path d="M111.5 86.5l1 1-1-1z" class="D"/><path d="M64.5 87.5l1 1-1-1m49 0l1 1-1-1z" class="C"/><path d="M65.5 88.5l1 1-1-1z" class="D"/><path d="M114.5 88.5l1 1-1-1z" class="B"/><path d="M115.5 89.5l1 1-1-1z" class="D"/><path d="M116.5 89.5l1 1-1-1z" class="C"/><path d="M66.5 90.5l1 1-1-1z" class="B"/><path d="M117.5 90.5l1 1-1-1z" class="C"/><path d="M118.5 91.5l1 1-1-1z" class="B"/><path d="M67.5 92.5l1 1-1-1z" class="C"/><path d="M119.5 92.5l1 1-1-1z" class="D"/><path d="M120.5 92.5l1 1-1-1z" class="C"/><path d="M68.5 93.5l1 1-1-1z" class="D"/><path d="M121.5 93.5l1 1-1-1z" class="C"/><path d="M122.5 94.5l1 1-1-1z" class="B"/><path d="M175.5 94.5l1 1-1-1z" class="C"/><path d="M69.5 95.5l1 1-1-1z" class="B"/><path d="M123.5 95.5l1 1-1-1z" class="D"/><path d="M124.5 95.5l1 1-1-1m45 0l1 1-1-1z" class="C"/><path d="M171.167 95.8333l.666.3334-.666-.3334z" class="B"/><path d="M172.5 95.5l1 1-1-1z" class="D"/><path d="M176.5 95.5l1 1-1-1m-51 1l1 1-1-1m37.667.3333l.666.3334-.666-.3334z" class="C"/><path d="M164.5 96.5l1 1-1-1z" class="B"/><path d="M165.5 96.5l1 1-1-1z" class="D"/><path d="M177.5 96.5l1 1-1-1z" class="B"/><path d="M70.5 97.5l1 1-1-1z" class="C"/><path d="M126.5 97.5l1 1-1-1z" class="B"/><path d="M156.167 97.8333l.666.3334-.666-.3334z" class="C"/><path d="M157.5 97.5l1 1-1-1z" class="B"/><path d="M159.167 97.8333l.666.3334-.666-.3334z" class="D"/><path d="M178.5 97.5l1 1-1-1z" class="B"/><path d="M71.5 98.5l1 1-1-1m56 0l1 1-1-1z" class="D"/><path d="M128.5 98.5l1 1-1-1m20.667.3333l.666.3334-.666-.3334z" class="C"/><path d="M151.167 98.8333l.666.3334-.666-.3334z" class="B"/><path d="M152.5 98.5l1 1-1-1m27 0l1 1-1-1z" class="D"/><path d="M180.5 98.5l1 1-1-1m-51 1l1 1-1-1m13 0l1 1-1-1z" class="C"/><use xlink:href="#B" class="B"/><path d="M145.5 99.5l1 1-1-1z" class="D"/><path d="M181.5 99.5l1 1-1-1z" class="C"/><path d="M72.5 100.5l1 1-1-1m58 0l1 1-1-1z" class="B"/><use xlink:href="#B" x="-8" y="1" class="C"/><path d="M137.5 100.5l1 1-1-1z" class="B"/><path d="M138.5 100.5l1 1-1-1z" class="D"/><path d="M182.5 100.5l1 1-1-1z" class="C"/><use xlink:href="#B" x="-12" y="2" class="D"/><path d="M183.5 101.5l1 1-1-1z" class="B"/><path d="M73.5 102.5l1 1-1-1z" class="C"/><path d="M184.5 102.5l1 1-1-1m-110 1l1 1-1-1z" class="B"/><path d="M185.5 103.5l1 1-1-1z" class="D"/><path d="M186.5 103.5l1 1-1-1m1 1l1 1-1-1z" class="C"/><path d="M75.5 105.5l1 1-1-1z" class="B"/><path d="M188.5 105.5l1 1-1-1z" class="C"/><path d="M189.5 106.5l1 1-1-1z" class="B"/><path d="M76.5 107.5l1 1-1-1z" class="C"/><path d="M190.5 107.5l1 1-1-1m-113 1l1 1-1-1z" class="B"/><path d="M191.5 108.5l1 1-1-1z" class="D"/><path d="M192.5 108.5l1 1-1-1m1 1l1 1-1-1z" class="C"/><path d="M78.5 110.5l1 1-1-1z" class="B"/><path d="M194.5 110.5l1 1-1-1z" class="C"/><path d="M79.5 111.5l1 1-1-1z" class="D"/><path d="M195.5 111.5l1 1-1-1z" class="B"/><path d="M79.5 112.5l1 1-1-1z" class="C"/><path d="M196.5 112.5l1 1-1-1m-116 1l1 1-1-1z" class="B"/><path d="M197.5 113.5l1 1-1-1z" class="D"/><path d="M198.5 113.5l1 1-1-1m1 1l1 1-1-1z" class="C"/><path d="M81.5 115.5l1 1-1-1z" class="B"/><path d="M198.5 115.5l1 1-1-1z" class="D"/><use xlink:href="#B" x="56" y="16" class="B"/><path d="M81.5 116.5l1 1-1-1m110 0l1 1-1-1z" class="D"/><use xlink:href="#B" x="49" y="17" class="B"/><use xlink:href="#B" x="51" y="17" class="C"/><use xlink:href="#B" x="41" y="18" class="D"/><path d="M186.5 117.5l1 1-1-1z" class="B"/><path d="M188.167 117.833l.666.334-.666-.334M80.5 118.5l1 1-1-1z" class="C"/><use xlink:href="#B" x="34" y="19" class="D"/><path d="M179.5 118.5l1 1-1-1z" class="B"/><use xlink:href="#B" x="37" y="19" class="C"/><path d="M80.5 119.5l1 1-1-1m91 0l1 1-1-1z" class="D"/><path d="M172.5 119.5l1 1-1-1z" class="B"/><use xlink:href="#C" class="C"/><path d="M255.5 119.5l1 1-1-1z" class="B"/><path d="M164.5 120.5l1 1-1-1z" class="D"/><use xlink:href="#B" x="22" y="21" class="B"/><use xlink:href="#D" class="C"/><path d="M249.5 120.5l1 1-1-1z" class="B"/><path d="M250.5 120.5l1 1-1-1z" class="D"/><path d="M256.5 120.5l1 1-1-1z" class="B"/><path d="M79.5 121.5l1 1-1-1z" class="C"/><path d="M157.5 121.5l1 1-1-1z" class="D"/><use xlink:href="#B" x="15" y="22" class="B"/><use xlink:href="#E" class="C"/><path d="M242.5 121.5l1 1-1-1z" class="B"/><path d="M243.5 121.5l1 1-1-1m14 0l1 1-1-1z" class="D"/><path d="M258.5 121.5l1 1-1-1z" class="C"/><path d="M79.5 122.5l1 1-1-1z" class="B"/><path d="M150.5 122.5l1 1-1-1z" class="D"/><use xlink:href="#B" x="8" y="23" class="B"/><use xlink:href="#E" x="-7" y="1" class="C"/><path d="M235.5 122.5l1 1-1-1z" class="B"/><use xlink:href="#B" x="93" y="23" class="D"/><path d="M259.5 122.5l1 1-1-1z" class="B"/><path d="M143.5 123.5l1 1-1-1z" class="D"/><use xlink:href="#B" x="1" y="24" class="B"/><use xlink:href="#E" x="-14" y="2" class="C"/><use xlink:href="#B" x="85" y="24" class="B"/><path d="M230.5 123.5l1 1-1-1z" class="D"/><path d="M260.5 123.5l1 1-1-1z" class="B"/><path d="M78.5 124.5l1 1-1-1z" class="C"/><path d="M136.5 124.5l1 1-1-1z" class="D"/><use xlink:href="#B" x="-6" y="25" class="B"/><use xlink:href="#C" x="-34" y="5" class="C"/><use xlink:href="#B" x="78" y="25" class="B"/><path d="M223.5 124.5l1 1-1-1m38 0l1 1-1-1z" class="D"/><path d="M262.5 124.5l1 1-1-1z" class="C"/><path d="M78.5 125.5l1 1-1-1z" class="B"/><use xlink:href="#B" x="-14" y="26" class="D"/><path d="M131.5 125.5l1 1-1-1z" class="B"/><path d="M132.5 125.5v1h3l-3-1m81.667.333l.666.334-.666-.334z" class="C"/><path d="M215.5 125.5l1 1-1-1z" class="B"/><path d="M216.5 125.5l1 1-1-1z" class="D"/><path d="M263.5 125.5l1 1-1-1z" class="B"/><path d="M78.5 126.5l1 1-1-1m44.667.333l.666.334-.666-.334z" class="D"/><path d="M124.5 126.5l1 1-1-1z" class="B"/><path d="M125.5 126.5v1h3l-3-1m81.667.333l.666.334-.666-.334z" class="C"/><path d="M208.5 126.5l1 1-1-1z" class="B"/><path d="M209.5 126.5l1 1-1-1m55 0l1 1-1-1z" class="D"/><path d="M77.5 127.5l1 1-1-1z" class="C"/><use xlink:href="#B" x="-28" y="28" class="D"/><use xlink:href="#B" x="-26" y="28" class="B"/><use xlink:href="#E" x="-41" y="6" class="C"/><path d="M201.5 127.5l1 1-1-1z" class="B"/><path d="M202.5 127.5l1 1-1-1z" class="D"/><path d="M266.5 127.5l1 1-1-1z" class="C"/><path d="M77.5 128.5l1 1-1-1m34 0l1 1-1-1z" class="B"/><use xlink:href="#E" x="-48" y="7" class="C"/><use xlink:href="#B" x="51" y="29" class="B"/><path d="M196.5 128.5l1 1-1-1z" class="D"/><path d="M267.5 128.5l1 1-1-1z" class="B"/><path d="M77.5 129.5l1 1-1-1z" class="D"/><path d="M111.5 129.5l1 1-1-1m75.667.333l.666.334-.666-.334z" class="C"/><path d="M188.5 129.5l1 1-1-1z" class="B"/><path d="M189.5 129.5l1 1-1-1m79 0l1 1-1-1z" class="D"/><path d="M269.5 129.5l1 1-1-1z" class="C"/><path d="M110.5 130.5l1 1-1-1z" class="D"/><use xlink:href="#B" x="36" y="31" class="C"/><path d="M181.5 130.5l1 1-1-1z" class="B"/><path d="M182.5 130.5l1 1-1-1z" class="D"/><path d="M270.5 130.5l1 1-1-1m-194 1l1 1-1-1m34.333.667l.334.666-.334-.666m62.334-.334l.666.334-.666-.334z" class="C"/><path d="M174.5 131.5l1 1-1-1z" class="B"/><path d="M175.5 131.5l1 1-1-1z" class="D"/><path d="M271.5 131.5l1 1-1-1z" class="B"/><path d="M76.5 132.5l1 1-1-1z" class="D"/><use xlink:href="#B" x="22" y="33" class="C"/><path d="M167.5 132.5l1 1-1-1z" class="B"/><path d="M168.5 132.5l1 1-1-1m104 0l1 1-1-1z" class="D"/><path d="M273.5 132.5l1 1-1-1z" class="C"/><path d="M109.5 133.5l1 1-1-1z" class="D"/><use xlink:href="#B" x="15" y="34" class="C"/><path d="M160.5 133.5l1 1-1-1z" class="B"/><path d="M161.5 133.5l1 1-1-1z" class="D"/><path d="M274.5 133.5l1 1-1-1m-199 1l1 1-1-1m34.333.667l.334.666-.334-.666m42.667-.667l1 1-1-1z" class="C"/><use xlink:href="#B" x="10" y="35" class="B"/><path d="M155.5 134.5l1 1-1-1z" class="D"/><path d="M275.5 134.5l1 1-1-1m-200 1l1 1-1-1z" class="B"/><use xlink:href="#B" x="2" y="36" class="C"/><path d="M147.5 135.5l1 1-1-1z" class="B"/><path d="M148.5 135.5l1 1-1-1m128 0l1 1-1-1z" class="D"/><path d="M277.5 135.5l1 1-1-1z" class="C"/><path d="M108.5 136.5l1 1-1-1z" class="D"/><use xlink:href="#B" x="-5" y="37" class="C"/><path d="M140.5 136.5l1 1-1-1z" class="B"/><path d="M141.5 136.5l1 1-1-1z" class="D"/><path d="M278.5 136.5l1 1-1-1m-204 1l1 1-1-1m34.333.667l.334.666-.334-.666m23.334-.334l.666.334-.666-.334z" class="C"/><path d="M133.5 137.5l1 1-1-1z" class="B"/><path d="M134.5 137.5l1 1-1-1z" class="D"/><path d="M279.5 137.5l1 1-1-1m-205 1l1 1-1-1z" class="B"/><use xlink:href="#B" x="-19" y="39" class="C"/><path d="M126.5 138.5l1 1-1-1z" class="B"/><path d="M127.5 138.5l1 1-1-1m153 0l1 1-1-1z" class="D"/><path d="M281.5 138.5l1 1-1-1z" class="C"/><path d="M107.5 139.5l1 1-1-1z" class="D"/><path d="M118.5 139.5l1 1-1-1z" class="C"/><path d="M119.5 139.5l1 1-1-1z" class="B"/><path d="M120.5 139.5l1 1-1-1z" class="D"/><path d="M282.5 139.5l1 1-1-1m-209 1l1 1-1-1z" class="C"/><path d="M107.5 140.5l1 1-1-1z" class="B"/><path d="M111.5 140.5l1 1-1-1z" class="C"/><use xlink:href="#B" x="-31" y="41" class="B"/><path d="M114.5 140.5l1 1-1-1m161 0l1 1-1-1z" class="D"/><use xlink:href="#B" x="133" y="41" class="B"/><path d="M278.5 140.5l1 1-1-1z" class="C"/><path d="M73.5 141.5l1 1-1-1z" class="B"/><path d="M107.5 141.5l1 1-1-1m161.667.333l.666.334-.666-.334z" class="D"/><path d="M270.5 141.5l1 1-1-1z" class="B"/><use xlink:href="#B" x="128" y="42" class="C"/><path d="M262.5 142.5l1 1-1-1z" class="D"/><path d="M263.5 142.5l1 1-1-1z" class="B"/><path d="M265.167 142.833l.666.334-.666-.334M72.5 143.5l1 1-1-1z" class="C"/><path d="M255.5 143.5l1 1-1-1z" class="D"/><path d="M256.5 143.5l1 1-1-1z" class="B"/><use xlink:href="#B" x="114" y="44" class="C"/><path d="M72.5 144.5l1 1-1-1z" class="B"/><path d="M248.5 144.5l1 1-1-1z" class="D"/><use xlink:href="#B" x="106" y="45" class="B"/><path d="M251.5 144.5l1 1-1-1z" class="C"/><use xlink:href="#B" x="98" y="46" class="D"/><path d="M243.5 145.5l1 1-1-1z" class="B"/><path d="M245.167 145.833l.666.334-.666-.334M71.5 146.5l1 1-1-1z" class="C"/><use xlink:href="#B" x="91" y="47" class="D"/><path d="M236.5 146.5l1 1-1-1z" class="B"/><use xlink:href="#B" x="94" y="47" class="C"/><path d="M71.5 147.5l1 1-1-1z" class="B"/><use xlink:href="#B" x="84" y="48" class="D"/><path d="M229.5 147.5l1 1-1-1z" class="B"/><use xlink:href="#B" x="87" y="48" class="C"/><path d="M221.5 148.5l1 1-1-1z" class="D"/><path d="M222.5 148.5l1 1-1-1z" class="B"/><path d="M224.167 148.833l.666.334-.666-.334m81.333-.333l1 1-1-1z" class="C"/><path d="M306.5 148.5v1h3l-3-1z" class="B"/><path d="M70.5 149.5l1 1-1-1z" class="C"/><path d="M214.5 149.5l1 1-1-1z" class="D"/><use xlink:href="#B" x="72" y="50" class="B"/><path d="M217.5 149.5l1 1-1-1m81.667.333l.666.334-.666-.334z" class="C"/><path d="M300.5 149.5l1 1-1-1z" class="B"/><path d="M301.5 149.5l1 1-1-1m8 0l1 1-1-1z" class="D"/><path d="M310.5 149.5l1 1-1-1z" class="C"/><path d="M70.5 150.5l1 1-1-1z" class="B"/><path d="M207.5 150.5l1 1-1-1z" class="D"/><use xlink:href="#B" x="65" y="51" class="B"/><use xlink:href="#F" class="C"/><path d="M293.5 150.5l1 1-1-1z" class="B"/><path d="M294.5 150.5l1 1-1-1z" class="D"/><path d="M311.5 150.5l1 1-1-1z" class="C"/><use xlink:href="#B" x="57" y="52" class="D"/><path d="M202.5 151.5l1 1-1-1z" class="B"/><use xlink:href="#F" x="-7" y="1" class="C"/><path d="M286.5 151.5l1 1-1-1z" class="B"/><use xlink:href="#B" x="144" y="52" class="D"/><path d="M312.5 151.5l1 1-1-1z" class="B"/><path d="M69.5 152.5l1 1-1-1z" class="C"/><use xlink:href="#B" x="50" y="53" class="D"/><path d="M195.5 152.5l1 1-1-1z" class="B"/><use xlink:href="#F" x="-14" y="2" class="C"/><use xlink:href="#B" x="136" y="53" class="B"/><path d="M281.5 152.5l1 1-1-1m32 0l1 1-1-1z" class="D"/><path d="M314.5 152.5l1 1-1-1z" class="C"/><path d="M69.5 153.5l1 1-1-1z" class="B"/><use xlink:href="#B" x="43" y="54" class="D"/><use xlink:href="#B" x="45" y="54" class="B"/><use xlink:href="#D" x="23" y="33" class="C"/><use xlink:href="#B" x="129" y="54" class="B"/><path d="M274.5 153.5l1 1-1-1z" class="D"/><path d="M315.5 153.5l1 1-1-1z" class="C"/><use xlink:href="#B" x="36" y="55" class="D"/><use xlink:href="#B" x="38" y="55" class="B"/><use xlink:href="#F" x="-27" y="4" class="C"/><path d="M266.5 154.5l1 1-1-1z" class="B"/><path d="M267.5 154.5l1 1-1-1z" class="D"/><path d="M316.5 154.5l1 1-1-1z" class="B"/><path d="M68.5 155.5l1 1-1-1z" class="C"/><path d="M173.5 155.5l1 1-1-1z" class="D"/><use xlink:href="#B" x="31" y="56" class="B"/><use xlink:href="#F" x="-34" y="5" class="C"/><path d="M259.5 155.5l1 1-1-1z" class="B"/><path d="M260.5 155.5l1 1-1-1m57 0l1 1-1-1z" class="D"/><path d="M318.5 155.5l1 1-1-1z" class="C"/><path d="M68.5 156.5l1 1-1-1z" class="B"/><path d="M166.5 156.5l1 1-1-1z" class="D"/><use xlink:href="#B" x="24" y="57" class="B"/><use xlink:href="#F" x="-41" y="6" class="C"/><path d="M252.5 156.5l1 1-1-1z" class="B"/><path d="M253.5 156.5l1 1-1-1z" class="D"/><path d="M319.5 156.5l1 1-1-1z" class="C"/><path d="M159.5 157.5l1 1-1-1z" class="D"/><use xlink:href="#B" x="17" y="58" class="B"/><use xlink:href="#F" x="-48" y="7" class="C"/><path d="M245.5 157.5l1 1-1-1z" class="B"/><use xlink:href="#B" x="103" y="58" class="D"/><path d="M320.5 157.5l1 1-1-1z" class="B"/><path d="M67.5 158.5l1 1-1-1z" class="C"/><use xlink:href="#B" x="9" y="59" class="D"/><path d="M154.5 158.5l1 1-1-1z" class="B"/><use xlink:href="#F" x="-55" y="8" class="C"/><use xlink:href="#B" x="95" y="59" class="B"/><path d="M240.5 158.5l1 1-1-1m81 0l1 1-1-1z" class="D"/><path d="M322.5 158.5l1 1-1-1z" class="C"/><path d="M67.5 159.5l1 1-1-1z" class="B"/><use xlink:href="#B" x="2" y="60" class="D"/><use xlink:href="#B" x="4" y="60" class="B"/><use xlink:href="#C" x="-24" y="40" class="C"/><use xlink:href="#B" x="88" y="60" class="B"/><path d="M233.5 159.5l1 1-1-1z" class="D"/><path d="M323.5 159.5l1 1-1-1z" class="C"/><use xlink:href="#B" x="-5" y="61" class="D"/><use xlink:href="#B" x="-3" y="61" class="B"/><use xlink:href="#F" x="-68" y="10" class="C"/><path d="M225.5 160.5l1 1-1-1z" class="B"/><path d="M226.5 160.5l1 1-1-1z" class="D"/><path d="M324.5 160.5l1 1-1-1z" class="B"/><path d="M66.5 161.5l1 1-1-1z" class="C"/><path d="M132.5 161.5l1 1-1-1z" class="D"/><use xlink:href="#B" x="-10" y="62" class="B"/><use xlink:href="#F" x="-75" y="11" class="C"/><path d="M218.5 161.5l1 1-1-1z" class="B"/><path d="M219.5 161.5l1 1-1-1m106 0l1 1-1-1z" class="D"/><path d="M326.5 161.5l1 1-1-1z" class="C"/><path d="M66.5 162.5l1 1-1-1z" class="B"/><path d="M125.5 162.5l1 1-1-1z" class="D"/><use xlink:href="#B" x="-17" y="63" class="B"/><use xlink:href="#F" x="-82" y="12" class="C"/><path d="M211.5 162.5l1 1-1-1z" class="B"/><path d="M212.5 162.5l1 1-1-1z" class="D"/><path d="M327.5 162.5l1 1-1-1z" class="C"/><path d="M118.5 163.5l1 1-1-1z" class="D"/><use xlink:href="#B" x="-24" y="64" class="B"/><use xlink:href="#F" x="-89" y="13" class="C"/><path d="M204.5 163.5l1 1-1-1z" class="B"/><path d="M205.5 163.5l1 1-1-1z" class="D"/><path d="M328.5 163.5l1 1-1-1z" class="B"/><path d="M65.5 164.5l1 1-1-1z" class="C"/><path d="M111.5 164.5l1 1-1-1z" class="D"/><use xlink:href="#B" x="-31" y="65" class="B"/><path d="M114.5 164.5v1h3l-3-1m81.667.333l.666.334-.666-.334z" class="C"/><path d="M197.5 164.5l1 1-1-1z" class="B"/><path d="M199.167 164.833l.666.334-.666-.334M329.5 164.5l1 1-1-1z" class="D"/><path d="M330.5 164.5l1 1-1-1z" class="C"/><path d="M65.5 165.5l1 1-1-1z" class="B"/><use xlink:href="#B" x="-39" y="66" class="D"/><path d="M106.5 165.5l1 1-1-1z" class="B"/><path d="M107.5 165.5v1h3l-3-1m82 0l1 1-1-1z" class="C"/><use xlink:href="#B" x="47" y="66" class="B"/><path d="M192.5 165.5l1 1-1-1z" class="D"/><path d="M331.5 165.5l1 1-1-1z" class="C"/><path d="M98.5 166.5l1 1-1-1z" class="D"/><use xlink:href="#B" x="-44" y="67" class="B"/><use xlink:href="#F" x="-109" y="16" class="C"/><path d="M184.5 166.5l1 1-1-1z" class="B"/><path d="M185.5 166.5l1 1-1-1z" class="D"/><path d="M332.5 166.5l1 1-1-1z" class="B"/><path d="M64.5 167.5l1 1-1-1z" class="C"/><path d="M98.5 167.5l1 1-1-1z" class="B"/><use xlink:href="#B" x="32" y="68" class="C"/><path d="M177.5 167.5l1 1-1-1z" class="B"/><path d="M178.5 167.5l1 1-1-1m155.333.667l.334.666-.334-.666z" class="D"/><path d="M334.5 167.5l1 1-1-1z" class="C"/><path d="M64.5 168.5l1 1-1-1z" class="B"/><path d="M98.5 168.5l1 1-1-1m70.667.333l.666.334-.666-.334z" class="C"/><path d="M170.5 168.5l1 1-1-1z" class="B"/><path d="M171.5 168.5l1 1-1-1z" class="D"/><use xlink:href="#B" x="191" y="69" class="B"/><path d="M97.5 169.5l1 1-1-1z" class="D"/><use xlink:href="#B" x="18" y="70" class="C"/><path d="M163.5 169.5l1 1-1-1z" class="B"/><path d="M164.5 169.5l1 1-1-1m162 0l1 1-1-1z" class="D"/><use xlink:href="#B" x="184" y="70" class="B"/><path d="M330.167 169.833l.666.334-.666-.334M63.5 170.5l1 1-1-1m34.3333.667l.3334.666-.3334-.666m57.3337-.334l.666.334-.666-.334z" class="C"/><path d="M156.5 170.5l1 1-1-1z" class="B"/><path d="M157.5 170.5l1 1-1-1m162.667.333l.666.334-.666-.334z" class="D"/><path d="M321.5 170.5l1 1-1-1z" class="B"/><use xlink:href="#B" x="179" y="71" class="C"/><path d="M63.5 171.5l1 1-1-1z" class="B"/><path d="M148.5 171.5l1 1-1-1z" class="C"/><path d="M149.5 171.5l1 1-1-1z" class="B"/><path d="M151.167 171.833l.666.334-.666-.334M313.5 171.5l1 1-1-1z" class="D"/><path d="M314.5 171.5l1 1-1-1z" class="B"/><use xlink:href="#B" x="172" y="72" class="C"/><path d="M96.5 172.5l1 1-1-1z" class="D"/><path d="M141.5 172.5l1 1-1-1z" class="C"/><use xlink:href="#B" x="-1" y="73" class="B"/><path d="M144.5 172.5l1 1-1-1m162 0l1 1-1-1z" class="D"/><path d="M307.5 172.5l1 1-1-1z" class="B"/><path d="M309.167 172.833l.666.334-.666-.334M62.5 173.5l1 1-1-1m34.3333.667l.3334.666-.3334-.666m38.3337-.334l.666.334-.666-.334z" class="C"/><path d="M136.5 173.5l1 1-1-1z" class="B"/><path d="M137.5 173.5l1 1-1-1m162 0l1 1-1-1z" class="D"/><path d="M300.5 173.5l1 1-1-1z" class="B"/><use xlink:href="#B" x="158" y="74" class="C"/><path d="M62.5 174.5l1 1-1-1z" class="B"/><use xlink:href="#B" x="-16" y="75" class="C"/><path d="M129.5 174.5l1 1-1-1z" class="B"/><path d="M130.5 174.5l1 1-1-1m162 0l1 1-1-1z" class="D"/><use xlink:href="#B" x="150" y="75" class="B"/><use xlink:href="#D" x="128" y="54" class="C"/><use xlink:href="#B" x="234" y="75" class="B"/><path d="M95.5 175.5l1 1-1-1z" class="D"/><use xlink:href="#B" x="-23" y="76" class="C"/><path d="M122.5 175.5l1 1-1-1z" class="B"/><path d="M123.5 175.5l1 1-1-1m162.667.333l.666.334-.666-.334z" class="D"/><path d="M287.5 175.5l1 1-1-1z" class="B"/><use xlink:href="#C" x="115" y="56" class="C"/><path d="M370.5 175.5l1 1-1-1z" class="B"/><path d="M371.5 175.5l1 1-1-1z" class="D"/><path d="M25.5 265.5c16.1322 8.588 30.7491 18.94 50 14.252 8.0573-1.963 14.9254-5.407 22-9.652 3.078-1.846 7.172-5.468 11-4.815 14.99 2.556 24.867 16.715 42 15.84 9.08-.464 18.166-3.574 26-8.052 4.115-2.353 10.108-7.888 15-7.888s10.885 5.535 15 7.888c7.834 4.478 16.92 7.588 26 8.052 17.133.875 27.01-13.284 42-15.84 7.614-1.299 13.104 9.869 21 8.47 9.712-1.722 21.134-10.061 29-15.682 27.648-19.758 47.516-49.138 54-82.573-20.474.423-41.722 5.807-62 8.729l-129 18.999-55 8.001c-8.216 1.184-18.248 1.282-26 4.265-7.5542 2.906-14.3727 9.412-21 13.981-4.604 3.173-9.4911 7.532-15 8.887-9.2337 2.27-22.5467.479-30.8148 5.313-6.2044 3.628-11.2173 15.476-14.1852 21.825z" class="E"/><path d="M378.833 176.167l.334.666-.334-.666M61.5 176.5l1 1-1-1m34.3333.667l.3334.666-.3334-.666m18.3337-.334l.666.334-.666-.334z" class="C"/><path d="M115.5 176.5l1 1-1-1z" class="B"/><path d="M116.5 176.5l1 1-1-1m162.667.333l.666.334-.666-.334z" class="D"/><path d="M280.5 176.5l1 1-1-1z" class="B"/><use xlink:href="#C" x="108" y="57" class="C"/><path d="M363.5 176.5l1 1-1-1z" class="B"/><use xlink:href="#B" x="221" y="77" class="D"/><path d="M61.5 177.5l1 1-1-1z" class="B"/><path d="M107.5 177.5l1 1-1-1z" class="C"/><path d="M108.5 177.5l1 1-1-1z" class="B"/><path d="M109.5 177.5l1 1-1-1m163 0l1 1-1-1z" class="D"/><path d="M273.5 177.5l1 1-1-1z" class="B"/><use xlink:href="#C" x="101" y="58" class="C"/><use xlink:href="#B" x="213" y="78" class="B"/><path d="M358.5 177.5l1 1-1-1m19 0l1 1-1-1m-283 1l1 1-1-1z" class="D"/><path d="M100.5 178.5l1 1-1-1z" class="C"/><use xlink:href="#B" x="-42" y="79" class="B"/><path d="M103.5 178.5l1 1-1-1m162 0l1 1-1-1z" class="D"/><path d="M266.5 178.5l1 1-1-1z" class="B"/><use xlink:href="#F" x="57" y="28" class="C"/><path d="M350.5 178.5l1 1-1-1z" class="B"/><path d="M351.5 178.5l1 1-1-1z" class="D"/><path d="M377.5 178.5l1 1-1-1z" class="B"/><path d="M60.5 179.5l1 1-1-1z" class="C"/><use xlink:href="#G" class="B"/><path d="M96.5 179.5l1 1-1-1m162 0l1 1-1-1z" class="D"/><use xlink:href="#B" x="116" y="80" class="B"/><use xlink:href="#D" x="94" y="59" class="C"/><path d="M343.5 179.5l1 1-1-1z" class="B"/><path d="M344.5 179.5l1 1-1-1z" class="D"/><path d="M377.833 180.167l.334.666-.334-.666z" class="C"/><path d="M60.5 180.5l1 1-1-1z" class="B"/><path d="M251.5 180.5l1 1-1-1z" class="D"/><use xlink:href="#B" x="109" y="81" class="B"/><use xlink:href="#E" x="94" y="59" class="C"/><path d="M336.5 180.5l1 1-1-1z" class="B"/><path d="M337.5 180.5l1 1-1-1m-277 1l1 1-1-1m184.667.333l.666.334-.666-.334z" class="D"/><path d="M246.5 181.5l1 1-1-1z" class="B"/><use xlink:href="#E" x="87" y="60" class="C"/><path d="M329.5 181.5l1 1-1-1z" class="B"/><path d="M330.5 181.5l1 1-1-1z" class="D"/><path d="M59.5 182.5l1 1-1-1z" class="C"/><use xlink:href="#B" x="94" y="83" class="D"/><path d="M239.5 182.5l1 1-1-1z" class="B"/><use xlink:href="#C" x="67" y="63" class="C"/><path d="M322.5 182.5l1 1-1-1z" class="B"/><path d="M324.167 182.833l.666.334-.666-.334m52.333-.333l1 1-1-1z" class="D"/><path d="M59.5 183.5l1 1-1-1z" class="B"/><path d="M231.5 183.5l1 1-1-1z" class="D"/><path d="M232.5 183.5l1 1-1-1z" class="B"/><use xlink:href="#C" x="60" y="64" class="C"/><use xlink:href="#B" x="172" y="84" class="B"/><path d="M317.5 183.5l1 1-1-1z" class="D"/><path d="M376.5 183.5l1 1-1-1z" class="B"/><path d="M59.5 184.5l1 1-1-1m165 0l1 1-1-1z" class="D"/><use xlink:href="#B" x="82" y="85" class="B"/><path d="M227.5 184.5l1 1-1-1m80 0l1 1-1-1z" class="C"/><use xlink:href="#B" x="165" y="85" class="B"/><path d="M310.5 184.5l1 1-1-1z" class="D"/><path d="M376.5 184.5l1 1-1-1m-318 1l1 1-1-1z" class="C"/><path d="M217.5 185.5l1 1-1-1z" class="D"/><use xlink:href="#B" x="75" y="86" class="B"/><use xlink:href="#E" x="60" y="64" class="C"/><path d="M302.5 185.5l1 1-1-1z" class="B"/><path d="M303.5 185.5l1 1-1-1z" class="D"/><path d="M58.5 186.5l1 1-1-1z" class="B"/><path d="M210.5 186.5l1 1-1-1z" class="D"/><use xlink:href="#B" x="68" y="87" class="B"/><use xlink:href="#E" x="53" y="65" class="C"/><path d="M295.5 186.5l1 1-1-1z" class="B"/><path d="M296.5 186.5l1 1-1-1m79 0l1 1-1-1m-317 1l1 1-1-1m145.667.333l.666.334-.666-.334z" class="D"/><path d="M205.5 187.5l1 1-1-1z" class="B"/><use xlink:href="#E" x="46" y="66" class="C"/><path d="M288.5 187.5l1 1-1-1z" class="B"/><use xlink:href="#B" x="146" y="88" class="D"/><path d="M375.5 187.5l1 1-1-1z" class="B"/><path d="M57.5 188.5l1 1-1-1z" class="C"/><use xlink:href="#B" x="53" y="89" class="D"/><path d="M198.5 188.5l1 1-1-1z" class="B"/><use xlink:href="#E" x="39" y="67" class="C"/><path d="M281.5 188.5l1 1-1-1z" class="B"/><use xlink:href="#B" x="139" y="89" class="D"/><path d="M375.5 188.5l1 1-1-1z" class="C"/><path d="M57.5 189.5l1 1-1-1z" class="B"/><path d="M190.5 189.5l1 1-1-1z" class="D"/><path d="M191.5 189.5l1 1-1-1z" class="B"/><use xlink:href="#C" x="19" y="70" class="C"/><use xlink:href="#B" x="131" y="90" class="B"/><path d="M276.5 189.5l1 1-1-1m98 0l1 1-1-1m-317 1l1 1-1-1m126 0l1 1-1-1z" class="D"/><use xlink:href="#B" x="41" y="91" class="B"/><path d="M186.5 190.5l1 1-1-1m80 0l1 1-1-1z" class="C"/><use xlink:href="#B" x="124" y="91" class="B"/><path d="M269.5 190.5l1 1-1-1z" class="D"/><path d="M374.5 190.5l1 1-1-1m-318 1l1 1-1-1z" class="C"/><path d="M176.5 191.5l1 1-1-1z" class="D"/><use xlink:href="#B" x="34" y="92" class="B"/><use xlink:href="#E" x="19" y="70" class="C"/><path d="M261.5 191.5l1 1-1-1z" class="B"/><path d="M262.5 191.5l1 1-1-1z" class="D"/><path d="M56.5 192.5l1 1-1-1z" class="B"/><path d="M169.5 192.5l1 1-1-1z" class="D"/><use xlink:href="#B" x="27" y="93" class="B"/><use xlink:href="#E" x="12" y="71" class="C"/><path d="M254.5 192.5l1 1-1-1z" class="B"/><use xlink:href="#B" x="112" y="93" class="D"/><path d="M373.5 192.5l1 1-1-1z" class="B"/><path d="M56.5 193.5l1 1-1-1m106 0l1 1-1-1z" class="D"/><use xlink:href="#B" x="20" y="94" class="B"/><use xlink:href="#E" x="5" y="72" class="C"/><path d="M247.5 193.5l1 1-1-1z" class="B"/><use xlink:href="#B" x="105" y="94" class="D"/><path d="M373.5 193.5l1 1-1-1m-318 1l1 1-1-1z" class="C"/><use xlink:href="#B" x="12" y="95" class="D"/><path d="M157.5 194.5l1 1-1-1z" class="B"/><use xlink:href="#E" x="-2" y="73" class="C"/><use xlink:href="#B" x="97" y="95" class="B"/><path d="M242.5 194.5l1 1-1-1z" class="D"/><path d="M55.5 195.5l1 1-1-1z" class="B"/><use xlink:href="#B" x="5" y="96" class="D"/><path d="M150.5 195.5l1 1-1-1z" class="B"/><use xlink:href="#C" x="-22" y="76" class="C"/><use xlink:href="#B" x="90" y="96" class="B"/><path d="M235.5 195.5l1 1-1-1z" class="D"/><path d="M372.5 195.5l1 1-1-1z" class="B"/><path d="M55.5 196.5l1 1-1-1m87 0l1 1-1-1z" class="D"/><path d="M143.5 196.5l1 1-1-1z" class="B"/><path d="M144.5 196.5v1h3l-3-1m81 0l1 1-1-1z" class="C"/><use xlink:href="#B" x="83" y="97" class="B"/><path d="M228.5 196.5l1 1-1-1z" class="D"/><path d="M372.5 196.5l1 1-1-1m-318 1l1 1-1-1z" class="C"/><path d="M135.5 197.5l1 1-1-1z" class="D"/><use xlink:href="#B" x="-7" y="98" class="B"/><use xlink:href="#E" x="-22" y="76" class="C"/><path d="M220.5 197.5l1 1-1-1z" class="B"/><use xlink:href="#B" x="78" y="98" class="D"/><path d="M54.5 198.5l1 1-1-1z" class="B"/><path d="M128.5 198.5l1 1-1-1z" class="D"/><use xlink:href="#B" x="-14" y="99" class="B"/><use xlink:href="#E" x="-29" y="77" class="C"/><path d="M213.5 198.5l1 1-1-1z" class="B"/><use xlink:href="#B" x="71" y="99" class="D"/><path d="M371.5 198.5l1 1-1-1z" class="B"/><path d="M54.5 199.5l1 1-1-1m67 0l1 1-1-1z" class="D"/><use xlink:href="#B" x="-21" y="100" class="B"/><use xlink:href="#E" x="-36" y="78" class="C"/><use xlink:href="#B" x="63" y="100" class="B"/><path d="M208.5 199.5l1 1-1-1z" class="D"/><path d="M371.5 199.5l1 1-1-1m-318 1l1 1-1-1z" class="C"/><use xlink:href="#B" x="-29" y="101" class="D"/><path d="M116.5 200.5l1 1-1-1z" class="B"/><use xlink:href="#E" x="-43" y="79" class="C"/><use xlink:href="#B" x="56" y="101" class="B"/><path d="M201.5 200.5l1 1-1-1z" class="D"/><path d="M370.5 200.5l1 1-1-1m-317 1l1 1-1-1z" class="B"/><path d="M107.5 201.5l1 1-1-1z" class="D"/><use xlink:href="#B" x="-35" y="102" class="B"/><use xlink:href="#E" x="-50" y="80" class="C"/><use xlink:href="#B" x="49" y="102" class="B"/><path d="M194.5 201.5l1 1-1-1z" class="D"/><path d="M370.5 201.5l1 1-1-1z" class="C"/><path d="M53.5 202.5l1 1-1-1z" class="D"/><use xlink:href="#B" x="-42" y="103" class="B"/><use xlink:href="#F" x="-107" y="52" class="C"/><path d="M186.5 202.5l1 1-1-1z" class="B"/><path d="M188.167 202.833l.666.334-.666-.334M369.5 202.5l1 1-1-1z" class="D"/><path d="M52.5 203.5l1 1-1-1z" class="C"/><path d="M99.5 203.5l1 1-1-1z" class="D"/><path d="M100.5 203.5l1 1-1-1m77.667.333l.666.334-.666-.334z" class="C"/><path d="M179.5 203.5l1 1-1-1z" class="B"/><use xlink:href="#B" x="37" y="104" class="D"/><path d="M369.5 203.5l1 1-1-1z" class="C"/><path d="M52.5 204.5l1 1-1-1m46 0l1 1-1-1z" class="B"/><use xlink:href="#B" x="27" y="105" class="C"/><use xlink:href="#B" x="29" y="105" class="B"/><path d="M174.5 204.5l1 1-1-1m194 0l1 1-1-1m-316 1l1 1-1-1z" class="D"/><path d="M97.5 205.5l1 1-1-1m66.667.333l.666.334-.666-.334z" class="C"/><use xlink:href="#B" x="22" y="106" class="B"/><path d="M167.5 205.5l1 1-1-1z" class="D"/><path d="M368.5 205.5l1 1-1-1m-317 1l1 1-1-1z" class="C"/><path d="M95.5 206.5l1 1-1-1z" class="B"/><use xlink:href="#B" x="13" y="107" class="C"/><use xlink:href="#B" x="15" y="107" class="B"/><path d="M160.5 206.5l1 1-1-1m207 0l1 1-1-1z" class="D"/><path d="M51.5 207.5l1 1-1-1z" class="B"/><path d="M94.5 207.5l1 1-1-1m55 0v1h3l-3-1z" class="C"/><path d="M152.5 207.5l1 1-1-1z" class="B"/><use xlink:href="#B" x="10" y="108" class="D"/><path d="M367.5 207.5l1 1-1-1z" class="C"/><path d="M51.5 208.5l1 1-1-1m41 0l1 1-1-1z" class="D"/><path d="M93.5 208.5l1 1-1-1m50.667.333l.666.334-.666-.334z" class="C"/><path d="M145.5 208.5l1 1-1-1z" class="B"/><path d="M147.167 208.833l.666.334-.666-.334M366.5 208.5l1 1-1-1z" class="D"/><path d="M50.5 209.5l1 1-1-1z" class="C"/><path d="M91.5 209.5l1 1-1-1z" class="B"/><use xlink:href="#B" x="-7" y="110" class="C"/><use xlink:href="#B" x="-5" y="110" class="B"/><path d="M140.5 209.5l1 1-1-1z" class="D"/><path d="M366.5 209.5l1 1-1-1z" class="C"/><path d="M50.5 210.5l1 1-1-1z" class="B"/><path d="M89.5 210.5l1 1-1-1z" class="D"/><path d="M90.5 210.5l1 1-1-1m39.667.333l.666.334-.666-.334z" class="C"/><use xlink:href="#B" x="-12" y="111" class="B"/><path d="M133.5 210.5l1 1-1-1m232 0l1 1-1-1m-315 1l1 1-1-1z" class="D"/><path d="M88.5 211.5l1 1-1-1z" class="B"/><use xlink:href="#B" x="-21" y="112" class="C"/><use xlink:href="#B" x="-19" y="112" class="B"/><path d="M126.5 211.5l1 1-1-1m163 0l1 1-1-1z" class="D"/><path d="M290.5 211.5v1h3l-3-1z" class="B"/><use xlink:href="#B" x="150" y="112" class="D"/><path d="M365.5 211.5l1 1-1-1m-316 1l1 1-1-1z" class="C"/><path d="M86.5 212.5l1 1-1-1z" class="D"/><path d="M87.5 212.5l1 1-1-1m28 0v1h3l-3-1z" class="C"/><path d="M118.5 212.5l1 1-1-1z" class="B"/><use xlink:href="#B" x="-24" y="113" class="D"/><path d="M287.5 212.5l1 1-1-1z" class="B"/><path d="M288.5 212.5l1 1-1-1z" class="C"/><path d="M289.515 213.2459c-9.855 3.745-4.781 19.0261 4.97 15.4961 9.997-3.619 5.393-19.434-4.97-15.4961z"/><path d="M295.5 212.5l1 1-1-1z" class="C"/><path d="M296.5 212.5l1 1-1-1z" class="D"/><path d="M364.5 212.5l1 1-1-1m-315 1l1 1-1-1m36 0l1 1-1-1z" class="B"/><use xlink:href="#B" x="-34" y="114" class="C"/><path d="M111.5 213.5l1 1-1-1z" class="B"/><use xlink:href="#B" x="-31" y="114" class="D"/><path d="M286.5 213.5l1 1-1-1z" class="C"/><path d="M297.5 213.5l1 1-1-1z" class="B"/><path d="M364.5 213.5l1 1-1-1z" class="C"/><path d="M49.5 214.5l1 1-1-1z" class="D"/><path d="M84.5 214.5l1 1-1-1z" class="C"/><path d="M105.5 214.5l1 1-1-1z" class="B"/><path d="M106.5 214.5l1 1-1-1m178 0l1 1-1-1z" class="D"/><path d="M285.5 214.5l1 1-1-1z" class="C"/><path d="M298.5 214.5l1 1-1-1m65 0l1 1-1-1z" class="B"/><path d="M48.5 215.5l1 1-1-1z" class="C"/><path d="M82.5 215.5l1 1-1-1z" class="D"/><path d="M83.5 215.5l1 1-1-1m20 0l1 1-1-1z" class="C"/><path d="M104.5 215.5l1 1-1-1z" class="D"/><path d="M284.5 215.5l1 1-1-1z" class="C"/><path d="M299.5 215.5l1 1-1-1m63 0l1 1-1-1z" class="D"/><path d="M48.5 216.5l1 1-1-1m33 0l1 1-1-1z" class="B"/><path d="M102.5 216.5l1 1-1-1z" class="C"/><path d="M283.5 216.5l1 1-1-1z" class="B"/><path d="M299.5 216.5l1 1-1-1m63 0l1 1-1-1z" class="C"/><path d="M48.5 217.5l1 1-1-1m31 0l1 1-1-1z" class="D"/><path d="M80.5 217.5l1 1-1-1m20 0l1 1-1-1z" class="C"/><path d="M101.5 217.5l1 1-1-1z" class="B"/><path d="M283.5 217.5l1 1-1-1z" class="C"/><path d="M361.5 217.5l1 1-1-1z" class="D"/><path d="M47.5 218.5l1 1-1-1z" class="C"/><path d="M78.5 218.5l1 1-1-1z" class="B"/><path d="M99.5 218.5l1 1-1-1z" class="C"/><path d="M300.5 218.5v4h1l-1-4z" class="B"/><path d="M361.5 218.5l1 1-1-1z" class="C"/><path d="M47.5 219.5l1 1-1-1z" class="B"/><path d="M76.5 219.5l1 1-1-1z" class="D"/><path d="M77.5 219.5l1 1-1-1z" class="C"/><path d="M98.5 219.5l1 1-1-1z" class="B"/><path d="M235.5 219.5l1 1-1-1z" class="D"/><path d="M236.5 219.5v1h4l-4-1z" class="C"/><path d="M240.5 219.5l1 1-1-1z" class="B"/><path d="M241.5 219.5l1 1-1-1m41 0v3h1l-1-3z" class="D"/><path d="M360.5 219.5l1 1-1-1z" class="B"/><path d="M47.5 220.5l1 1-1-1z" class="D"/><path d="M75.5 220.5l1 1-1-1z" class="B"/><path d="M96.5 220.5l1 1-1-1z" class="C"/><path d="M97.5 220.5l1 1-1-1z" class="D"/><path d="M233.5 220.5l1 1-1-1z" class="B"/><path d="M234.5 220.5l1 1-1-1z" class="C"/><path d="M235.544 221.243c-9.43 3.79-3.789 18.8879 5.941 15.348 10.5379-3.834 4.4549-19.5261-5.941-15.348z"/><path d="M242.5 220.5l1 1-1-1z" class="B"/><path d="M359.5 220.5l1 1-1-1z" class="D"/><path d="M46.5 221.5l1 1-1-1m28 0l1 1-1-1z" class="C"/><path d="M95.5 221.5l1 1-1-1z" class="B"/><path d="M232.5 221.5l1 1-1-1z" class="C"/><path d="M244.5 221.5l1 1-1-1z" class="D"/><path d="M359.5 221.5l1 1-1-1z" class="C"/><path d="M46.5 222.5l1 1-1-1m26 0l1 1-1-1z" class="B"/><path d="M73.5 222.5l1 1-1-1m20 0l1 1-1-1z" class="C"/><path d="M94.5 222.5l1 1-1-1z" class="D"/><path d="M231.5 222.5l1 1-1-1z" class="C"/><path d="M300.5 222.5l1 1-1-1z" class="D"/><path d="M358.5 222.5l1 1-1-1z" class="B"/><path d="M46.5 223.5l1 1-1-1z" class="D"/><path d="M71.5 223.5l1 1-1-1z" class="C"/><path d="M92.5 223.5l1 1-1-1m138 0l1 1-1-1z" class="B"/><path d="M245.5 223.5l1 1-1-1m38 0l1 1-1-1m16 0l1 1-1-1z" class="C"/><path d="M357.5 223.5l1 1-1-1z" class="D"/><path d="M45.5 224.5l1 1-1-1z" class="C"/><path d="M69.5 224.5l1 1-1-1z" class="D"/><path d="M70.5 224.5l1 1-1-1m20 0l1 1-1-1z" class="C"/><path d="M91.5 224.5l1 1-1-1z" class="D"/><path d="M230.5 224.5l1 1-1-1z" class="C"/><path d="M246.5 224.5l1 1-1-1m37 0l1 1-1-1z" class="D"/><path d="M299.5 224.5l1 1-1-1z" class="B"/><path d="M357.5 224.5l1 1-1-1z" class="C"/><path d="M45.5 225.5l1 1-1-1z" class="B"/><path d="M67.5 225.5l1 1-1-1z" class="D"/><path d="M68.5 225.5l1 1-1-1z" class="B"/><path d="M89.5 225.5l1 1-1-1z" class="C"/><path d="M229.5 225.5l1 1-1-1m17 0l1 1-1-1z" class="B"/><path d="M284.5 225.5l1 1-1-1m14 0l-1 2 1-2m58 0l1 1-1-1z" class="C"/><path d="M45.5 226.5l1 1-1-1m15 0l1 1-1-1z" class="D"/><use xlink:href="#G" x="-33" y="47" class="B"/><use xlink:href="#G" x="-31" y="47" class="C"/><path d="M88.5 226.5l1 1-1-1z" class="B"/><path d="M229.5 226.5v4h1l-1-4m56 0l1 1-1-1z" class="C"/><path d="M298.5 226.5l1 1-1-1z" class="D"/><path d="M355.5 226.5l1 1-1-1z" class="B"/><path d="M44.5 227.5l1 1-1-1z" class="C"/><path d="M54.5 227.5l1 1-1-1z" class="D"/><path d="M55.5 227.5l1 1-1-1z" class="B"/><path d="M57.1667 227.833l.6666.334-.6666-.334M86.5 227.5l1 1-1-1z" class="C"/><path d="M87.5 227.5l1 1-1-1m94 0l1 1-1-1z" class="D"/><path d="M182.5 227.5l1 1-1-1z" class="B"/><path d="M183.5 227.5l1 1-1-1z" class="C"/><path d="M184.504 228.172c-11 .892-9.014 18.092 1.992 16.724 10.325-1.283 8.242-17.554-1.992-16.724z"/><path d="M186.5 227.5l1 1-1-1z" class="C"/><path d="M187.5 227.5l1 1-1-1z" class="B"/><path d="M188.5 227.5l1 1-1-1z" class="D"/><path d="M286.5 227.5l1 1-1-1m10 0l1 1-1-1z" class="C"/><path d="M354.5 227.5l1 1-1-1z" class="D"/><path d="M44.5 228.5l1 1-1-1z" class="B"/><path d="M47.5 228.5l1 1-1-1z" class="D"/><path d="M48.5 228.5l1 1-1-1z" class="B"/><use xlink:href="#G" x="-45" y="49" class="C"/><path d="M85.5 228.5l1 1-1-1m94 0l1 1-1-1m10 0l1 1-1-1z" class="B"/><path d="M287.5 228.5l1 1-1-1z" class="D"/><path d="M288.5 228.5l1 1-1-1m6 0l1 1-1-1z" class="C"/><path d="M295.5 228.5l1 1-1-1z" class="B"/><path d="M354.5 228.5l1 1-1-1m-271 1l1 1-1-1z" class="C"/><path d="M84.5 229.5l1 1-1-1z" class="D"/><path d="M178.5 229.5l1 1-1-1z" class="B"/><path d="M190.5 229.5l1 1-1-1z" class="C"/><use xlink:href="#B" x="148" y="130" class="D"/><path d="M353.5 229.5l1 1-1-1m-271 1l1 1-1-1m95 0l1 1-1-1z" class="B"/><path d="M191.5 230.5l1 1-1-1z" class="C"/><path d="M229.5 230.5l1 1-1-1m123 0l1 1-1-1z" class="B"/><path d="M80.5 231.5l1 1-1-1z" class="C"/><path d="M81.5 231.5l1 1-1-1z" class="D"/><path d="M177.5 231.5l1 1-1-1m15 0l1 1-1-1z" class="C"/><path d="M246.5 231.5l1 1-1-1z" class="B"/><path d="M351.5 231.5l1 1-1-1z" class="D"/><path d="M79.5 232.5l1 1-1-1z" class="C"/><path d="M176.5 232.5l1 1-1-1z" class="B"/><path d="M230.5 232.5l1 1-1-1m121 0l1 1-1-1z" class="C"/><path d="M78.5 233.5l1 1-1-1z" class="B"/><path d="M176.5 233.5l1 1-1-1z" class="C"/><path d="M193.5 233.5l1 1-1-1z" class="B"/><path d="M231.5 233.5l1 1-1-1z" class="C"/><path d="M245.5 233.5l1 1-1-1z" class="B"/><path d="M350.5 233.5l1 1-1-1m-274 1l1 1-1-1m117 0v4h1l-1-4z" class="C"/><path d="M231.5 234.5l1 1-1-1z" class="D"/><path d="M244.5 234.5l1 1-1-1m105 0l1 1-1-1m-274 1l1 1-1-1m53 0l1 1-1-1z" class="B"/><path d="M129.5 235.5l1 1-1-1z" class="C"/><path d="M130.504 236.1519c-10.753 1.9101-7.716 17.7681 2.981 16.1041 10.421-1.621 7.411-17.95-2.981-16.1041z"/><use xlink:href="#B" x="-10" y="136" class="C"/><path d="M135.5 235.5l1 1-1-1m40 0v3h1l-1-3z" class="D"/><path d="M232.5 235.5l1 1-1-1z" class="B"/><path d="M233.5 235.5l1 1-1-1z" class="C"/><path d="M243.5 235.5l1 1-1-1m105 0l1 1-1-1z" class="B"/><path d="M73.5 236.5l1 1-1-1z" class="C"/><path d="M74.5 236.5l1 1-1-1z" class="D"/><path d="M126.5 236.5l1 1-1-1z" class="C"/><path d="M136.5 236.5l1 1-1-1m98 0l1 1-1-1z" class="B"/><path d="M235.5 236.5l1 1-1-1m5 0l1 1-1-1z" class="C"/><path d="M241.5 236.5l1 1-1-1z" class="B"/><path d="M242.5 236.5l1 1-1-1z" class="D"/><path d="M347.5 236.5l1 1-1-1z" class="B"/><use xlink:href="#G" x="-25" y="58" class="C"/><use xlink:href="#G" x="-23" y="58" class="B"/><path d="M125.5 237.5l1 1-1-1z" class="C"/><path d="M137.5 237.5l1 1-1-1m209 0l1 1-1-1z" class="B"/><use xlink:href="#G" x="-32" y="59" class="C"/><use xlink:href="#G" x="-30" y="59" class="B"/><path d="M66.5 238.5l1 1-1-1m57 0l1 1-1-1z" class="D"/><path d="M138.5 238.5l1 1-1-1z" class="B"/><path d="M176.5 238.5l1 1-1-1z" class="C"/><path d="M193.5 238.5l1 1-1-1z" class="B"/><path d="M345.5 238.5l1 1-1-1z" class="D"/><use xlink:href="#G" x="-39" y="60" class="C"/><use xlink:href="#G" x="-37" y="60" class="B"/><path d="M59.5 239.5l1 1-1-1z" class="D"/><path d="M123.5 239.5l1 1-1-1z" class="C"/><path d="M139.5 239.5l1 1-1-1z" class="D"/><path d="M176.5 239.5l1 1-1-1z" class="B"/><path d="M344.5 239.5l1 1-1-1z" class="D"/><use xlink:href="#G" x="-46" y="61" class="C"/><use xlink:href="#G" x="-44" y="61" class="B"/><path d="M52.5 240.5l1 1-1-1z" class="D"/><path d="M139.5 240.5l1 1-1-1z" class="C"/><path d="M176.5 240.5l1 1-1-1z" class="D"/><path d="M192.5 240.5l1 1-1-1z" class="B"/><path d="M343.5 240.5l1 1-1-1z" class="D"/><use xlink:href="#G" x="-53" y="62" class="C"/><use xlink:href="#G" x="-51" y="62" class="B"/><path d="M45.5 241.5l1 1-1-1z" class="D"/><path d="M122.5 241.5v5h1l-1-5m55 0l1 1-1-1z" class="B"/><path d="M192.5 241.5l1 1-1-1m-153.3333 1.333l.6666.334-.6666-.334M140.5 242.5v3h1l-1-3z" class="D"/><path d="M178.5 242.5l1 1-1-1z" class="B"/><path d="M190.5 242.5l1 1-1-1z" class="C"/><path d="M191.5 242.5l1 1-1-1z" class="D"/><path d="M37.5 243.5l1 1-1-1m142 0l1 1-1-1z" class="B"/><path d="M180.5 243.5l1 1-1-1m9 0l1 1-1-1z" class="C"/><path d="M181.5 244.5l1 1-1-1z" class="B"/><use xlink:href="#B" x="39" y="145" class="C"/><path d="M187.5 244.5l1 1-1-1z" class="B"/><path d="M188.5 244.5l1 1-1-1m151 0l1 1-1-1m-303 1l1 1-1-1m302 0l1 1-1-1z" class="D"/><path d="M35.5 246.5l1 1-1-1m104 0l1 1-1-1z" class="C"/><path d="M337.5 246.5l1 1-1-1z" class="D"/><path d="M123.5 247.5l1 1-1-1z" class="C"/><path d="M139.5 247.5l1 1-1-1z" class="B"/><path d="M336.5 247.5l1 1-1-1z" class="D"/><path d="M34.5 248.5l1 1-1-1m89 0l1 1-1-1z" class="B"/><path d="M138.5 248.5l1 1-1-1z" class="C"/><path d="M335.5 248.5l1 1-1-1z" class="D"/><path d="M33.5 249.5l1 1-1-1z" class="C"/><path d="M124.5 249.5l1 1-1-1m14 0l1 1-1-1m196 0l1 1-1-1z" class="B"/><path d="M33.5 250.5l1 1-1-1z" class="D"/><path d="M125.5 250.5l1 1-1-1z" class="B"/><path d="M137.5 250.5l1 1-1-1z" class="D"/><path d="M333.5 250.5l1 1-1-1m-301 1l1 1-1-1z" class="C"/><path d="M126.5 251.5l1 1-1-1z" class="B"/><path d="M127.5 251.5l1 1-1-1m8 0l1 1-1-1z" class="C"/><path d="M136.5 251.5l1 1-1-1z" class="D"/><path d="M332.5 251.5l1 1-1-1z" class="C"/><path d="M128.5 252.5l1 1-1-1z" class="B"/><path d="M129.5 252.5v1h4l-4-1z" class="C"/><path d="M133.5 252.5l1 1-1-1z" class="B"/><path d="M134.5 252.5l1 1-1-1m196 0l1 1-1-1z" class="D"/><path d="M31.5 253.5l1 1-1-1m298 0l1 1-1-1z" class="B"/><path d="M30.5 254.5l1 1-1-1m298 0l1 1-1-1z" class="C"/><path d="M30.5 255.5l1 1-1-1m296 0l1 1-1-1z" class="D"/><path d="M327.5 255.5l1 1-1-1m-298 1l1 1-1-1z" class="C"/><path d="M325.5 256.5l1 1-1-1z" class="B"/><path d="M324.5 257.5l1 1-1-1z" class="C"/><path d="M28.5 258.5l1 1-1-1z" class="B"/><path d="M322.5 258.5l1 1-1-1z" class="D"/><path d="M323.5 258.5l1 1-1-1m-296 1l1 1-1-1z" class="C"/><path d="M321.5 259.5l1 1-1-1z" class="B"/><path d="M27.5 260.5l1 1-1-1m292 0l1 1-1-1z" class="D"/><path d="M320.5 260.5l1 1-1-1z" class="C"/><path d="M26.5 261.5l1 1-1-1m292 0l1 1-1-1z" class="B"/><path d="M316.5 262.5l1 1-1-1z" class="D"/><path d="M317.5 262.5l1 1-1-1z" class="C"/><path d="M25.5 263.5l1 1-1-1z" class="B"/><path d="M107.167 263.833l.666.334-.666-.334m84 0l.666.334-.666-.334m84 0l.666.334-.666-.334z" class="D"/><path d="M315.5 263.5l1 1-1-1z" class="B"/><path d="M24.5 264.5l1 1-1-1m81 0l1 1-1-1m3 0l1 1-1-1m81 0l1 1-1-1m3 0l1 1-1-1m81 0l1 1-1-1m3 0l1 1-1-1z" class="C"/><path d="M313.5 264.5l1 1-1-1z" class="B"/><path d="M314.5 264.5l1 1-1-1m-289 1l1 1-1-1z" class="C"/><path d="M26.5 265.5l1 1-1-1m77 0l1 1-1-1z" class="D"/><path d="M110.5 265.5l1 1-1-1z" class="B"/><path d="M187.5 265.5l1 1-1-1z" class="D"/><path d="M194.5 265.5l1 1-1-1z" class="B"/><path d="M271.5 265.5l1 1-1-1z" class="D"/><path d="M278.5 265.5l1 1-1-1z" class="B"/><path d="M311.5 265.5l1 1-1-1z" class="D"/><path d="M312.5 265.5l1 1-1-1z" class="C"/><path d="M27.5 266.5l1 1-1-1z" class="B"/><path d="M102.5 266.5l1 1-1-1m9 0l1 1-1-1m75 0l1 1-1-1m9 0l1 1-1-1m75 0l1 1-1-1m9 0l1 1-1-1z" class="C"/><path d="M309.5 266.5l1 1-1-1z" class="D"/><path d="M310.5 266.5l1 1-1-1m-282 1l1 1-1-1z" class="C"/><path d="M29.5 267.5l1 1-1-1z" class="D"/><path d="M100.5 267.5l1 1-1-1m13 0l1 1-1-1m71 0l1 1-1-1m13 0l1 1-1-1m71 0l1 1-1-1m13 0l1 1-1-1z" class="B"/><path d="M307.5 267.5l1 1-1-1z" class="D"/><path d="M308.5 267.5l1 1-1-1m-278 1l1 1-1-1z" class="C"/><path d="M31.5 268.5l1 1-1-1m67 0l1 1-1-1z" class="D"/><path d="M99.5 268.5l1 1-1-1m15 0l1 1-1-1z" class="C"/><path d="M115.5 268.5l1 1-1-1m67 0l1 1-1-1z" class="D"/><path d="M183.5 268.5l1 1-1-1m15 0l1 1-1-1z" class="C"/><path d="M199.5 268.5l1 1-1-1m67 0l1 1-1-1z" class="D"/><path d="M267.5 268.5l1 1-1-1m15 0l1 1-1-1z" class="C"/><path d="M283.5 268.5l1 1-1-1m22 0l1 1-1-1z" class="D"/><path d="M306.5 268.5l1 1-1-1z" class="C"/><path d="M32.5 269.5l1 1-1-1m65 0l1 1-1-1z" class="B"/><path d="M116.5 269.5l1 1-1-1z" class="C"/><path d="M181.5 269.5l1 1-1-1z" class="B"/><path d="M200.5 269.5l1 1-1-1z" class="C"/><path d="M265.5 269.5l1 1-1-1z" class="B"/><path d="M284.5 269.5l1 1-1-1z" class="C"/><path d="M303.5 269.5l1 1-1-1z" class="D"/><path d="M304.5 269.5l1 1-1-1m-271 1l1 1-1-1z" class="C"/><path d="M34.5 270.5l1 1-1-1z" class="D"/><path d="M95.5 270.5l1 1-1-1m23 0l1 1-1-1m61 0l1 1-1-1m23 0l1 1-1-1m61 0l1 1-1-1m23 0l1 1-1-1z" class="B"/><path d="M301.5 270.5l1 1-1-1z" class="D"/><path d="M302.5 270.5l1 1-1-1z" class="C"/><path d="M35.5 271.5l1 1-1-1z" class="B"/><path d="M93.5 271.5l1 1-1-1z" class="D"/><path d="M94.5 271.5l1 1-1-1m25 0l1 1-1-1z" class="C"/><path d="M120.5 271.5l1 1-1-1m57 0l1 1-1-1z" class="D"/><path d="M178.5 271.5l1 1-1-1m25 0l1 1-1-1z" class="C"/><path d="M204.5 271.5l1 1-1-1m57 0l1 1-1-1z" class="D"/><path d="M262.5 271.5l1 1-1-1m25 0l1 1-1-1z" class="C"/><path d="M288.5 271.5l1 1-1-1m11 0l1 1-1-1z" class="D"/><path d="M300.5 271.5l1 1-1-1m-264 1l1 1-1-1z" class="C"/><path d="M37.5 272.5l1 1-1-1m55 0l1 1-1-1m29 0l1 1-1-1m55 0l1 1-1-1m29 0l1 1-1-1m55 0l1 1-1-1m29 0l1 1-1-1m8 0l1 1-1-1z" class="B"/><path d="M298.5 272.5l1 1-1-1m-260 1l1 1-1-1z" class="C"/><use xlink:href="#H" class="D"/><path d="M91.5 273.5l1 1-1-1m31 0l1 1-1-1z" class="C"/><use xlink:href="#H" x="84" class="D"/><path d="M175.5 273.5l1 1-1-1m31 0l1 1-1-1z" class="C"/><use xlink:href="#H" x="168" class="D"/><path d="M259.5 273.5l1 1-1-1m31 0l1 1-1-1z" class="C"/><path d="M291.5 273.5l1 1-1-1z" class="D"/><path d="M295.5 273.5l1 1-1-1z" class="B"/><path d="M296.5 273.5l1 1-1-1m-256 1l1 1-1-1z" class="C"/><path d="M41.5 274.5l1 1-1-1m47 0l1 1-1-1z" class="D"/><use xlink:href="#I" class="C"/><path d="M125.5 274.5l1 1-1-1m47 0l1 1-1-1z" class="D"/><use xlink:href="#I" x="84" class="C"/><path d="M209.5 274.5l1 1-1-1m47 0l1 1-1-1z" class="D"/><path d="M257.5 274.5l1 1-1-1z" class="C"/><use xlink:href="#B" x="149" y="175" class="B"/><path d="M42.5 275.5l1 1-1-1z" class="C"/><path d="M43.5 275.5l1 1-1-1m43 0l1 1-1-1z" class="D"/><use xlink:href="#J" class="C"/><path d="M127.5 275.5l1 1-1-1z" class="B"/><path d="M170.5 275.5l1 1-1-1z" class="D"/><use xlink:href="#J" x="84" class="C"/><path d="M211.5 275.5l1 1-1-1z" class="B"/><path d="M254.5 275.5l1 1-1-1z" class="D"/><path d="M255.5 275.5l1 1-1-1m-211 1l1 1-1-1z" class="C"/><use xlink:href="#J" x="-42" y="1" class="B"/><path d="M85.5 276.5l1 1-1-1m43 0l1 1-1-1z" class="C"/><use xlink:href="#J" x="42" y="1" class="B"/><path d="M169.5 276.5l1 1-1-1m43 0l1 1-1-1z" class="C"/><use xlink:href="#J" x="126" y="1" class="B"/><path d="M253.5 276.5l1 1-1-1m-206.3333 1.333l.6666.334-.6666-.334z" class="C"/><path d="M48.5 277.5l1 1-1-1z" class="D"/><path d="M81.5 277.5l1 1-1-1z" class="B"/><path d="M82.5 277.5l1 1-1-1m49 0l1 1-1-1z" class="C"/><path d="M132.5 277.5l1 1-1-1m33 0l1 1-1-1z" class="B"/><path d="M166.5 277.5l1 1-1-1m49 0l1 1-1-1z" class="C"/><path d="M216.5 277.5l1 1-1-1m33 0l1 1-1-1z" class="B"/><path d="M250.5 277.5l1 1-1-1m-200 1l1 1-1-1z" class="C"/><path d="M51.5 278.5l1 1-1-1z" class="B"/><path d="M77.5 278.5l1 1-1-1z" class="D"/><path d="M78.5 278.5l1 1-1-1z" class="B"/><path d="M79.5 278.5l1 1-1-1m55 0l1 1-1-1z" class="C"/><path d="M135.5 278.5l1 1-1-1z" class="B"/><path d="M136.5 278.5l1 1-1-1m25 0l1 1-1-1z" class="D"/><path d="M162.5 278.5l1 1-1-1z" class="B"/><path d="M163.5 278.5l1 1-1-1m55 0l1 1-1-1z" class="C"/><path d="M219.5 278.5l1 1-1-1z" class="B"/><path d="M220.5 278.5l1 1-1-1m25 0l1 1-1-1z" class="D"/><path d="M246.5 278.5l1 1-1-1z" class="B"/><path d="M247.5 278.5l1 1-1-1m-194 1l1 1-1-1z" class="C"/><path d="M54.5 279.5l1 1-1-1z" class="B"/><path d="M55.5 279.5l1 1-1-1m19 0l1 1-1-1z" class="D"/><path d="M75.5 279.5l1 1-1-1z" class="B"/><path d="M76.5 279.5l1 1-1-1m61 0l1 1-1-1z" class="C"/><path d="M138.5 279.5l1 1-1-1z" class="B"/><path d="M139.5 279.5l1 1-1-1m19 0l1 1-1-1z" class="D"/><path d="M159.5 279.5l1 1-1-1z" class="B"/><path d="M160.5 279.5l1 1-1-1m61 0l1 1-1-1z" class="C"/><path d="M222.5 279.5l1 1-1-1z" class="B"/><path d="M223.5 279.5l1 1-1-1m19 0l1 1-1-1z" class="D"/><path d="M243.5 279.5l1 1-1-1z" class="B"/><path d="M244.5 279.5l1 1-1-1m-186.3333 1.333l.6666.334-.6666-.334z" class="C"/><path d="M59.5 280.5l1 1-1-1z" class="B"/><path d="M60.5 280.5v1h3l-3-1m7 0v1h3l-3-1z" class="D"/><path d="M70.5 280.5l1 1-1-1z" class="B"/><path d="M72.1667 280.833l.6666.334-.6666-.334m70.0003 0l.666.334-.666-.334z" class="C"/><path d="M143.5 280.5l1 1-1-1z" class="B"/><path d="M144.5 280.5v1h3l-3-1m7 0v1h3l-3-1z" class="D"/><path d="M154.5 280.5l1 1-1-1z" class="B"/><path d="M156.167 280.833l.666.334-.666-.334m70 0l.666.334-.666-.334z" class="C"/><path d="M227.5 280.5l1 1-1-1z" class="B"/><path d="M228.5 280.5v1h3l-3-1m7 0v1h3l-3-1z" class="D"/><path d="M238.5 280.5l1 1-1-1z" class="B"/><path d="M240.167 280.833l.666.334-.666-.334M105.5 285.5l1 1-1-1z" class="C"/><path d="M29.5 290.5l-12 19c18.2449 10.649 40.0115 15.8469 61 12.561 9.2987-1.456 19.9382-8.135 29-8.135 4.571 0 9.653 3.2019 14 4.549 8.874 2.749 18.674 4.846 28 4.846s19.126-2.097 28-4.846c4.347-1.3471 9.429-4.549 14-4.549 14.572 0 28.296 10.742 44 9.274 8.515-.796 16.772-1.969 25-4.4211 4.655-1.3869 10.138-4.8529 15-4.8529 9.062 0 19.701 6.679 29 8.135 20.988 3.2859 42.755-1.912 61-12.561l-12-19c-15.717 3.733-28.012 11.214-45 8.561-8.022-1.253-15.691-3.959-23-7.451-3.017-1.441-6.549-4.983-10-4.983-5.196-.001-12.9979 6.4059-18 8.42-9.727 3.916-20.572 5.325-31 4.282-8.377-.837-16.39-3.819-24-7.265-3.293-1.491-7.321-5.437-11-5.437-3.386-.001-7.002 3.452-10 4.844-7.968 3.701-16.169 6.976-25 7.858-10.848 1.085-21.931-.544-32-4.69-4.695-1.934-12.132-8.012-17-8.012-3.386-.001-7.002 3.452-10 4.844-7.1459 3.319-14.2093 6.037-22 7.414-17.1309 3.027-30.1449-4.048-46-8.385z" class="E"/><path d="M108.5 285.5l1 1-1-1m81 0l1 1-1-1m3 0l1 1-1-1m81 0l1 1-1-1m3 0l1 1-1-1z" class="C"/><path d="M104.5 286.5l1 1-1-1m5 0l1 1-1-1m79 0l1 1-1-1m5 0l1 1-1-1m79 0l1 1-1-1m5 0l1 1-1-1z" class="B"/><path d="M102.5 287.5l1 1-1-1z" class="C"/><path d="M103.5 287.5l1 1-1-1m7 0l1 1-1-1z" class="D"/><path d="M111.5 287.5l1 1-1-1m75 0l1 1-1-1z" class="C"/><path d="M187.5 287.5l1 1-1-1m7 0l1 1-1-1z" class="D"/><path d="M195.5 287.5l1 1-1-1m75 0l1 1-1-1z" class="C"/><path d="M271.5 287.5l1 1-1-1m7 0l1 1-1-1z" class="D"/><path d="M279.5 287.5l1 1-1-1m-250 1l1 1-1-1z" class="C"/><path d="M101.5 288.5l1 1-1-1m11 0l1 1-1-1m73 0l1 1-1-1m11 0l1 1-1-1m73 0l1 1-1-1m11 0l1 1-1-1z" class="B"/><path d="M29.5 289.5l1 1-1-1z" class="D"/><path d="M30.5 289.5l1 1-1-1m69 0l1 1-1-1z" class="B"/><path d="M100.5 289.5l1 1-1-1m13 0l1 1-1-1z" class="D"/><path d="M114.5 289.5l1 1-1-1z" class="C"/><path d="M183.5 289.5l1 1-1-1z" class="B"/><path d="M184.5 289.5l1 1-1-1m13 0l1 1-1-1z" class="D"/><path d="M198.5 289.5l1 1-1-1z" class="C"/><path d="M267.5 289.5l1 1-1-1z" class="B"/><path d="M268.5 289.5l1 1-1-1m13 0l1 1-1-1z" class="D"/><path d="M282.5 289.5l1 1-1-1z" class="C"/><path d="M351.5 289.5l1 1-1-1z" class="B"/><path d="M352.5 289.5l1 1-1-1z" class="D"/><path d="M28.5 290.5l1 1-1-1z" class="B"/><path d="M31.5 290.5l1 1-1-1z" class="D"/><path d="M32.5 290.5l1 1-1-1z" class="C"/><path d="M97.5 290.5l1 1-1-1z" class="B"/><path d="M98.5 290.5l1 1-1-1m17 0l1 1-1-1z" class="D"/><path d="M116.5 290.5l1 1-1-1z" class="C"/><path d="M181.5 290.5l1 1-1-1z" class="B"/><path d="M182.5 290.5l1 1-1-1m17 0l1 1-1-1z" class="D"/><path d="M200.5 290.5l1 1-1-1z" class="C"/><path d="M265.5 290.5l1 1-1-1z" class="B"/><path d="M266.5 290.5l1 1-1-1m17 0l1 1-1-1z" class="D"/><path d="M284.5 290.5l1 1-1-1z" class="C"/><path d="M349.5 290.5l1 1-1-1z" class="B"/><path d="M350.5 290.5l1 1-1-1z" class="D"/><path d="M353.5 290.5l1 1-1-1z" class="B"/><path d="M27.5 291.5l1 1-1-1z" class="C"/><path d="M33.5 291.5l1 1-1-1z" class="D"/><path d="M34.5 291.5l1 1-1-1z" class="C"/><path d="M95.5 291.5l1 1-1-1z" class="B"/><path d="M117.5 291.5l1 1-1-1z" class="D"/><path d="M118.5 291.5l1 1-1-1z" class="C"/><path d="M179.5 291.5l1 1-1-1z" class="B"/><path d="M201.5 291.5l1 1-1-1z" class="D"/><path d="M202.5 291.5l1 1-1-1z" class="C"/><path d="M263.5 291.5l1 1-1-1z" class="B"/><path d="M285.5 291.5l1 1-1-1z" class="D"/><path d="M286.5 291.5l1 1-1-1z" class="C"/><path d="M347.5 291.5l1 1-1-1z" class="B"/><path d="M354.5 291.5l1 1-1-1z" class="C"/><path d="M27.5 292.5l1 1-1-1z" class="D"/><path d="M36.5 292.5l1 1-1-1z" class="B"/><path d="M37.5 292.5l1 1-1-1m55 0l1 1-1-1z" class="C"/><path d="M93.5 292.5l1 1-1-1m27 0l1 1-1-1z" class="B"/><path d="M121.5 292.5l1 1-1-1m55 0l1 1-1-1z" class="C"/><path d="M177.5 292.5l1 1-1-1m27 0l1 1-1-1z" class="B"/><path d="M205.5 292.5l1 1-1-1m55 0l1 1-1-1z" class="C"/><path d="M261.5 292.5l1 1-1-1m27 0l1 1-1-1z" class="B"/><path d="M289.5 292.5l1 1-1-1m55 0l1 1-1-1z" class="C"/><path d="M345.5 292.5l1 1-1-1m9 0l1 1-1-1m-328 1l1 1-1-1m12 0l1 1-1-1z" class="B"/><use xlink:href="#H" y="20" class="C"/><path d="M91.5 293.5l1 1-1-1m31 0l1 1-1-1z" class="B"/><use xlink:href="#H" x="84" y="20" class="C"/><path d="M175.5 293.5l1 1-1-1m31 0l1 1-1-1z" class="B"/><use xlink:href="#H" x="168" y="20" class="C"/><path d="M259.5 293.5l1 1-1-1m31 0l1 1-1-1z" class="B"/><use xlink:href="#H" x="252" y="20" class="C"/><path d="M343.5 293.5l1 1-1-1z" class="B"/><path d="M355.5 293.5l1 1-1-1m-330 1l1 1-1-1z" class="C"/><path d="M40.5 294.5l1 1-1-1z" class="D"/><path d="M41.5 294.5l1 1-1-1z" class="B"/><path d="M42.5 294.5l1 1-1-1m45 0l1 1-1-1z" class="C"/><path d="M88.5 294.5l1 1-1-1z" class="B"/><use xlink:href="#I" y="20" class="D"/><path d="M125.5 294.5l1 1-1-1z" class="B"/><path d="M126.5 294.5l1 1-1-1m45 0l1 1-1-1z" class="C"/><path d="M172.5 294.5l1 1-1-1z" class="B"/><use xlink:href="#I" x="84" y="20" class="D"/><path d="M209.5 294.5l1 1-1-1z" class="B"/><path d="M210.5 294.5l1 1-1-1m45 0l1 1-1-1z" class="C"/><path d="M256.5 294.5l1 1-1-1z" class="B"/><use xlink:href="#I" x="168" y="20" class="D"/><path d="M293.5 294.5l1 1-1-1z" class="B"/><path d="M294.5 294.5l1 1-1-1m45 0l1 1-1-1z" class="C"/><path d="M340.5 294.5l1 1-1-1z" class="B"/><path d="M341.5 294.5l1 1-1-1z" class="D"/><path d="M356.5 294.5l1 1-1-1z" class="C"/><path d="M25.5 295.5l1 1-1-1z" class="B"/><path d="M43.5 295.5l1 1-1-1z" class="D"/><path d="M44.5 295.5l1 1-1-1z" class="B"/><use xlink:href="#J" x="-42" y="20" class="C"/><path d="M85.5 295.5l1 1-1-1z" class="B"/><path d="M86.5 295.5l1 1-1-1m41 0l1 1-1-1z" class="D"/><path d="M128.5 295.5l1 1-1-1z" class="B"/><use xlink:href="#J" x="42" y="20" class="C"/><path d="M169.5 295.5l1 1-1-1z" class="B"/><path d="M170.5 295.5l1 1-1-1m41 0l1 1-1-1z" class="D"/><path d="M212.5 295.5l1 1-1-1z" class="B"/><use xlink:href="#J" x="126" y="20" class="C"/><path d="M253.5 295.5l1 1-1-1z" class="B"/><path d="M254.5 295.5l1 1-1-1m41 0l1 1-1-1z" class="D"/><path d="M296.5 295.5l1 1-1-1z" class="B"/><use xlink:href="#J" x="210" y="20" class="C"/><path d="M337.5 295.5l1 1-1-1z" class="B"/><path d="M338.5 295.5l1 1-1-1z" class="D"/><path d="M356.5 295.5l1 1-1-1z" class="B"/><path d="M24.5 296.5l1 1-1-1z" class="C"/><path d="M46.5 296.5l1 1-1-1z" class="D"/><path d="M47.5 296.5l1 1-1-1z" class="B"/><path d="M48.5 296.5l1 1-1-1m33 0l1 1-1-1z" class="C"/><path d="M82.5 296.5l1 1-1-1z" class="B"/><path d="M83.5 296.5l1 1-1-1m47 0l1 1-1-1z" class="D"/><path d="M131.5 296.5l1 1-1-1z" class="B"/><path d="M132.5 296.5l1 1-1-1m33 0l1 1-1-1z" class="C"/><path d="M166.5 296.5l1 1-1-1z" class="B"/><path d="M167.5 296.5l1 1-1-1m47 0l1 1-1-1z" class="D"/><path d="M215.5 296.5l1 1-1-1z" class="B"/><path d="M216.5 296.5l1 1-1-1m33 0l1 1-1-1z" class="C"/><path d="M250.5 296.5l1 1-1-1z" class="B"/><path d="M251.5 296.5l1 1-1-1m47 0l1 1-1-1z" class="D"/><path d="M299.5 296.5l1 1-1-1z" class="B"/><path d="M300.5 296.5l1 1-1-1m33 0l1 1-1-1z" class="C"/><path d="M334.5 296.5l1 1-1-1z" class="B"/><path d="M335.5 296.5l1 1-1-1z" class="D"/><path d="M357.5 296.5l1 1-1-1m-334 1l1 1-1-1z" class="C"/><path d="M50.5 297.5l1 1-1-1z" class="D"/><path d="M52.1667 297.833l.6666.334-.6666-.334m25 0l.6666.334-.6666-.334z" class="C"/><path d="M78.5 297.5l1 1-1-1z" class="B"/><path d="M79.5 297.5l1 1-1-1m55 0l1 1-1-1z" class="D"/><use xlink:href="#K" class="C"/><path d="M162.5 297.5l1 1-1-1z" class="B"/><path d="M163.5 297.5l1 1-1-1m55 0l1 1-1-1z" class="D"/><use xlink:href="#K" x="84" class="C"/><path d="M246.5 297.5l1 1-1-1z" class="B"/><path d="M247.5 297.5l1 1-1-1m55 0l1 1-1-1z" class="D"/><use xlink:href="#K" x="168" class="C"/><path d="M330.5 297.5l1 1-1-1z" class="B"/><path d="M331.5 297.5l1 1-1-1m26 0l1 1-1-1z" class="D"/><path d="M23.5 298.5l1 1-1-1z" class="B"/><use xlink:href="#G" x="-39" y="119" class="D"/><path d="M57.5 298.5l1 1-1-1z" class="B"/><use xlink:href="#L" class="C"/><path d="M72.5 298.5l1 1-1-1z" class="B"/><path d="M74.1667 298.833l.6666.334-.6666-.334m66.0003 0l.666.334-.666-.334z" class="D"/><path d="M141.5 298.5l1 1-1-1z" class="B"/><use xlink:href="#L" x="84" class="C"/><path d="M156.5 298.5l1 1-1-1z" class="B"/><path d="M158.167 298.833l.666.334-.666-.334m66 0l.666.334-.666-.334z" class="D"/><path d="M225.5 298.5l1 1-1-1z" class="B"/><use xlink:href="#L" x="168" class="C"/><path d="M240.5 298.5l1 1-1-1z" class="B"/><path d="M242.167 298.833l.666.334-.666-.334m66 0l.666.334-.666-.334z" class="D"/><path d="M309.5 298.5l1 1-1-1z" class="B"/><use xlink:href="#L" x="252" class="C"/><path d="M324.5 298.5l1 1-1-1z" class="B"/><use xlink:href="#B" x="182" y="199" class="D"/><path d="M358.5 298.5l1 1-1-1z" class="B"/><path d="M22.5 299.5l1 1-1-1m337 0l1 1-1-1z" class="C"/><path d="M359.5 300.5l1 1-1-1z" class="D"/><path d="M21.5 301.5l1 1-1-1m339 0l1 1-1-1z" class="B"/><path d="M20.5 302.5l1 1-1-1m341 0l1 1-1-1z" class="C"/><path d="M20.5 303.5l1 1-1-1m341 0l1 1-1-1z" class="D"/><path d="M19.5 304.5l1 1-1-1m343 0l1 1-1-1z" class="B"/><path d="M18.5 305.5l1 1-1-1m345 0l1 1-1-1z" class="C"/><path d="M18.5 306.5l1 1-1-1m345 0l1 1-1-1z" class="D"/><path d="M17.5 307.5l1 1-1-1m347 0l1 1-1-1z" class="B"/><path d="M16.5 308.5l1 1-1-1m349 0l1 1-1-1z" class="C"/><path d="M17.5 309.5l1 1-1-1m347 0l1 1-1-1z" class="B"/><path d="M18.5 310.5l1 1-1-1z" class="C"/><path d="M19.5 310.5l1 1-1-1m343 0l1 1-1-1z" class="B"/><path d="M363.5 310.5l1 1-1-1m-343 1l1 1-1-1z" class="C"/><path d="M21.5 311.5l1 1-1-1m339 0l1 1-1-1z" class="D"/><path d="M361.5 311.5l1 1-1-1m-339 1l1 1-1-1z" class="C"/><path d="M23.5 312.5l1 1-1-1m335 0l1 1-1-1z" class="D"/><path d="M359.5 312.5l1 1-1-1m-335 1l1 1-1-1z" class="C"/><path d="M25.5 313.5l1 1-1-1m79 0l1 1-1-1z" class="D"/><path d="M105.5 313.5l1 1-1-1m3 0l1 1-1-1z" class="C"/><path d="M109.5 313.5l1 1-1-1m79 0l1 1-1-1z" class="D"/><path d="M189.5 313.5l1 1-1-1m3 0l1 1-1-1z" class="C"/><path d="M193.5 313.5l1 1-1-1m79 0l1 1-1-1z" class="D"/><path d="M273.5 313.5l1 1-1-1m3 0l1 1-1-1z" class="C"/><path d="M277.5 313.5l1 1-1-1m79 0l1 1-1-1z" class="D"/><path d="M357.5 313.5l1 1-1-1m-331 1l1 1-1-1z" class="C"/><path d="M27.5 314.5l1 1-1-1m75 0l1 1-1-1z" class="B"/><path d="M103.5 314.5l1 1-1-1m7 0l1 1-1-1z" class="C"/><path d="M111.5 314.5l1 1-1-1m75 0l1 1-1-1z" class="B"/><path d="M187.5 314.5l1 1-1-1m7 0l1 1-1-1z" class="C"/><path d="M195.5 314.5l1 1-1-1m75 0l1 1-1-1z" class="B"/><path d="M271.5 314.5l1 1-1-1m7 0l1 1-1-1z" class="C"/><path d="M279.5 314.5l1 1-1-1m75 0l1 1-1-1z" class="B"/><path d="M355.5 314.5l1 1-1-1z" class="C"/><path d="M29.5 315.5l1 1-1-1z" class="B"/><path d="M30.5 315.5l1 1-1-1z" class="D"/><path d="M100.5 315.5l1 1-1-1z" class="B"/><path d="M101.5 315.5l1 1-1-1z" class="C"/><path d="M113.5 315.5l1 1-1-1m71 0l1 1-1-1z" class="B"/><path d="M185.5 315.5l1 1-1-1z" class="C"/><path d="M197.5 315.5l1 1-1-1m71 0l1 1-1-1z" class="B"/><path d="M269.5 315.5l1 1-1-1z" class="C"/><path d="M281.5 315.5l1 1-1-1z" class="B"/><path d="M351.5 315.5l1 1-1-1z" class="D"/><path d="M352.5 315.5l1 1-1-1z" class="B"/><path d="M31.5 316.5l1 1-1-1z" class="C"/><path d="M32.5 316.5l1 1-1-1m65 0l1 1-1-1z" class="B"/><path d="M98.5 316.5l1 1-1-1m17 0l1 1-1-1z" class="C"/><path d="M116.5 316.5l1 1-1-1m65 0l1 1-1-1z" class="B"/><path d="M182.5 316.5l1 1-1-1m17 0l1 1-1-1z" class="C"/><path d="M200.5 316.5l1 1-1-1m65 0l1 1-1-1z" class="B"/><path d="M266.5 316.5l1 1-1-1m17 0l1 1-1-1z" class="C"/><path d="M284.5 316.5l1 1-1-1m65 0l1 1-1-1z" class="B"/><path d="M350.5 316.5l1 1-1-1m-316 1l1 1-1-1z" class="C"/><path d="M35.5 317.5l1 1-1-1z" class="D"/><path d="M94.5 317.5l1 1-1-1z" class="B"/><path d="M95.5 317.5l1 1-1-1m23 0l1 1-1-1z" class="C"/><path d="M119.5 317.5l1 1-1-1m59 0l1 1-1-1z" class="B"/><path d="M179.5 317.5l1 1-1-1m23 0l1 1-1-1z" class="C"/><path d="M203.5 317.5l1 1-1-1m59 0l1 1-1-1z" class="B"/><path d="M263.5 317.5l1 1-1-1m23 0l1 1-1-1z" class="C"/><path d="M287.5 317.5l1 1-1-1z" class="B"/><path d="M346.5 317.5l1 1-1-1z" class="D"/><path d="M347.5 317.5l1 1-1-1m-310 1l1 1-1-1z" class="C"/><path d="M38.5 318.5l1 1-1-1z" class="D"/><path d="M91.5 318.5l1 1-1-1z" class="B"/><path d="M92.5 318.5l1 1-1-1m29 0l1 1-1-1z" class="C"/><path d="M122.5 318.5l1 1-1-1m53 0l1 1-1-1z" class="B"/><path d="M176.5 318.5l1 1-1-1m29 0l1 1-1-1z" class="C"/><path d="M206.5 318.5l1 1-1-1m53 0l1 1-1-1z" class="B"/><path d="M260.5 318.5l1 1-1-1m29 0l1 1-1-1z" class="C"/><path d="M290.5 318.5l1 1-1-1z" class="B"/><path d="M343.5 318.5l1 1-1-1z" class="D"/><path d="M344.5 318.5l1 1-1-1m-304 1l1 1-1-1z" class="C"/><path d="M41.5 319.5l1 1-1-1z" class="B"/><path d="M42.5 319.5l1 1-1-1m45 0l1 1-1-1z" class="D"/><path d="M88.5 319.5l1 1-1-1z" class="B"/><use xlink:href="#I" y="45" class="C"/><path d="M125.5 319.5l1 1-1-1z" class="B"/><path d="M126.5 319.5l1 1-1-1m45 0l1 1-1-1z" class="D"/><path d="M172.5 319.5l1 1-1-1z" class="B"/><use xlink:href="#I" x="84" y="45" class="C"/><path d="M209.5 319.5l1 1-1-1z" class="B"/><path d="M210.5 319.5l1 1-1-1m45 0l1 1-1-1z" class="D"/><path d="M256.5 319.5l1 1-1-1z" class="B"/><use xlink:href="#I" x="168" y="45" class="C"/><path d="M293.5 319.5l1 1-1-1z" class="B"/><path d="M294.5 319.5l1 1-1-1m45 0l1 1-1-1z" class="D"/><path d="M340.5 319.5l1 1-1-1z" class="B"/><path d="M341.5 319.5l1 1-1-1m-297.3333 1.333l.6666.334-.6666-.334z" class="C"/><path d="M45.5 320.5l1 1-1-1m38 0l1 1-1-1z" class="D"/><path d="M84.5 320.5l1 1-1-1z" class="B"/><path d="M85.5 320.5l1 1-1-1m43 0l1 1-1-1z" class="C"/><path d="M129.5 320.5l1 1-1-1z" class="B"/><path d="M130.5 320.5l1 1-1-1m37 0l1 1-1-1z" class="D"/><path d="M168.5 320.5l1 1-1-1z" class="B"/><path d="M169.5 320.5l1 1-1-1m43 0l1 1-1-1z" class="C"/><path d="M213.5 320.5l1 1-1-1z" class="B"/><path d="M214.5 320.5l1 1-1-1m37 0l1 1-1-1z" class="D"/><path d="M252.5 320.5l1 1-1-1z" class="B"/><path d="M253.5 320.5l1 1-1-1m43 0l1 1-1-1z" class="C"/><path d="M297.5 320.5l1 1-1-1z" class="B"/><path d="M298.5 320.5l1 1-1-1m38 0l1 1-1-1z" class="D"/><path d="M337.5 320.5l1 1-1-1m-289 1l1 1-1-1z" class="C"/><use xlink:href="#G" x="-45" y="142" class="B"/><path d="M51.5 321.5l1 1-1-1m27 0l1 1-1-1z" class="D"/><path d="M79.5 321.5l1 1-1-1z" class="B"/><path d="M81.1667 321.833l.6666.334-.6666-.334m52.0003 0l.666.334-.666-.334z" class="C"/><path d="M134.5 321.5l1 1-1-1z" class="B"/><path d="M135.5 321.5l1 1-1-1m27 0l1 1-1-1z" class="D"/><path d="M163.5 321.5l1 1-1-1z" class="B"/><path d="M165.167 321.833l.666.334-.666-.334m52 0l.666.334-.666-.334z" class="C"/><path d="M218.5 321.5l1 1-1-1z" class="B"/><path d="M219.5 321.5l1 1-1-1m27 0l1 1-1-1z" class="D"/><path d="M247.5 321.5l1 1-1-1z" class="B"/><path d="M249.167 321.833l.666.334-.666-.334m52 0l.666.334-.666-.334z" class="C"/><path d="M302.5 321.5l1 1-1-1z" class="B"/><path d="M303.5 321.5l1 1-1-1m27 0l1 1-1-1z" class="D"/><use xlink:href="#B" x="188" y="222" class="B"/><path d="M333.5 321.5l1 1-1-1m-279 1l1 1-1-1z" class="C"/><path d="M55.5 322.5v1h5l-5-1z" class="B"/><path d="M60.5 322.5v1h3l-3-1m8 0v1h4l-4-1z" class="D"/><use xlink:href="#G" x="-22" y="143" class="B"/><path d="M75.1667 322.833l.6666.334-.6666-.334m64.0003 0l.666.334-.666-.334z" class="C"/><use xlink:href="#B" x="-3" y="223" class="B"/><use xlink:href="#L" x="84" y="24" class="D"/><use xlink:href="#B" x="13" y="223" class="B"/><path d="M159.167 322.833l.666.334-.666-.334m64 0l.666.334-.666-.334z" class="C"/><use xlink:href="#B" x="81" y="223" class="B"/><use xlink:href="#L" x="168" y="24" class="D"/><use xlink:href="#B" x="97" y="223" class="B"/><path d="M243.167 322.833l.666.334-.666-.334m64 0l.666.334-.666-.334z" class="C"/><use xlink:href="#B" x="165" y="223" class="B"/><path d="M310.5 322.5v1h4l-4-1m9 0v1h3l-3-1z" class="D"/><path d="M322.5 322.5v1h5l-5-1z" class="B"/><path d="M327.5 322.5l1 1-1-1z" class="C"/></g><defs ><path id="B" d="M144.167 99.833l.666.334-.666-.334z"/><path id="C" d="M174.167 119.833l.666.334-.666-.334m80.333-.333l1 1-1-1z"/><path id="D" d="M167.5 120.5l1 1-1-1m80.667.333l.666.334-.666-.334z"/><path id="E" d="M161.167 121.833l.666.334-.666-.334m80 0l.666.334-.666-.334z"/><path id="F" d="M211.167 150.833l.666.334-.666-.334m81 0l.666.334-.666-.334z"/><path id="G" d="M95.1667 179.833l.6666.334-.6666-.334z"/><path id="H" d="M39.5 273.5l1 1-1-1m51 0l1 1-1-1z"/><path id="I" d="M89.5 274.5l1 1-1-1m35 0l1 1-1-1z"/><path id="J" d="M87.5 275.5l1 1-1-1m39 0l1 1-1-1z"/><path id="K" d="M136.167 297.833l.666.334-.666-.334m25 0l.666.334-.666-.334z"/><path id="L" d="M58.5 298.5v1h4l-4-1m10 0v1h4l-4-1z"/></defs></svg>